<svg xmlns="http://www.w3.org/2000/svg" width="100%" height="100%" viewBox="0 0 98 24">
    <g>
        <path d="M20.8.01c-.64 0-1.27.06-1.9.16a12.38 12.38 0 0 0-.98-.13c-.42-.04-.77-.04-1-.04-.57 0-1.14.04-1.7.12a.36.36 0 0 0-.18.16.33.33 0 0 0-.03.09l-.32 1.48a10.37 10.37 0 0 1 1.45 19.7 1.35 1.35 0 0 1-1.84-1.53l1.05-4.99 1.35 2.07 1.64-1.07-2.22-3.41a1.74 1.74 0 0 0-2.4-.5l-3.4 2.22 1.07 1.64 2.05-1.33-1.07 5.06a3.14 3.14 0 0 0 1.75 3.5c1.33.52 2.88.65 4.7.28A11.82 11.82 0 1 0 20.8 0zm3.79 11.92c0-3.82-1.9-7.38-4.92-9.69a9.97 9.97 0 0 1 .35 19.05 12.2 12.2 0 0 0 4.57-9.36zm-.57 9.34a11.82 11.82 0 0 0 .07-18.84 9.97 9.97 0 0 1-.07 18.84z"/>
        <path d="M9.23 8.83L7.88 6.76 6.25 7.84l2.22 3.4a1.74 1.74 0 0 0 2.4.5l3.4-2.22-1.07-1.64-2.04 1.33 1.06-5.06A3.16 3.16 0 0 0 7.93.58C3.28 2.44 0 6.93 0 11.93c0 5.52 3.96 10.5 9.5 11.92l.39-1.83A10.37 10.37 0 0 1 8.44 2.3a1.35 1.35 0 0 1 1.83 1.53l-1.04 5zm87.98-2.21a8.5 8.5 0 0 0-1.86-2.59 8.99 8.99 0 0 0-2.77-1.78 8.87 8.87 0 0 0-3.43-.67h-2.46a8.88 8.88 0 0 0-3.43.67 8.99 8.99 0 0 0-2.78 1.78 8.48 8.48 0 0 0-1.86 2.6 7.24 7.24 0 0 0-.69 3.06v12.58h4.46V10.14a3.8 3.8 0 0 1 .38-1.72c.23-.48.57-.92.98-1.27.41-.36.88-.63 1.39-.81a4.53 4.53 0 0 1 1.55-.3h2.46c.53.01 1.05.1 1.54.3a4.44 4.44 0 0 1 1.4.8 3.83 3.83 0 0 1 1.36 3v12.13h4.45V9.7a7.24 7.24 0 0 0-.69-3.07zM61.97 3.01a8.51 8.51 0 0 0-2.6 1.86 9 9 0 0 0-1.78 2.78 8.88 8.88 0 0 0-.66 3.42v2.46a8.88 8.88 0 0 0 .66 3.44 9 9 0 0 0 1.79 2.76 8.5 8.5 0 0 0 2.59 1.86c.96.45 2 .69 3.06.69H75v-4.46h-9.53a3.8 3.8 0 0 1-1.71-.38 4.04 4.04 0 0 1-1.28-.98 4.43 4.43 0 0 1-.8-1.4 4.51 4.51 0 0 1-.28-1.53v-2.46a4.53 4.53 0 0 1 1.08-2.93 4.04 4.04 0 0 1 1.28-.99 3.81 3.81 0 0 1 1.72-.37H75V2.32h-9.98a7.24 7.24 0 0 0-3.06.69zm-20.1 0a8.5 8.5 0 0 0-2.6 1.86 9 9 0 0 0-1.77 2.78 8.9 8.9 0 0 0-.67 3.42v2.46a8.9 8.9 0 0 0 .67 3.44 9 9 0 0 0 1.78 2.77 8.5 8.5 0 0 0 2.59 1.86c.96.45 2 .69 3.06.69h9.97v-4.47h-9.53a3.8 3.8 0 0 1-1.72-.38 4.04 4.04 0 0 1-1.28-.98 4.45 4.45 0 0 1-.8-1.4 4.53 4.53 0 0 1-.28-1.53v-2.46c0-.53.1-1.06.29-1.55a4.44 4.44 0 0 1 .8-1.4 4.04 4.04 0 0 1 1.27-.97 3.81 3.81 0 0 1 1.72-.37h9.53V2.32h-9.97a7.24 7.24 0 0 0-3.06.69z"/>
    </g>
</svg>