
<svg xmlns="http://www.w3.org/2000/svg" width="100%" height="100%" viewBox="0 0 146 34">
    <g>
        <path d="M21.06 24.74L15 27.37v-.26c-1.16.3-2.46.47-3.68.53-5.7-.06-10.21-3.04-10.27-6.58v-1.32c1.87 2.72 5.68 4.54 10.27 4.47a15.6 15.6 0 0 0 4.47-.52l.53-1.32c-1.58.47-3.31.8-5 .8-5.7 0-10.21-2.98-10.27-6.59v-1.05c1.87 2.51 5.67 4.33 10.27 4.2 2.07.13 4.09-.3 5.79-1.04l.26-1.32a12.37 12.37 0 0 1-6.05 1.32c-5.7.07-10.21-2.91-10.27-6.58v-1.06c1.87 2.58 5.68 4.4 10.27 4.48 2.6-.08 5.08-.77 7.1-1.84l.27-1.58a13.7 13.7 0 0 1-7.37 2.37c-5.7-.13-10.21-3.11-10.27-6.85.06-3.55 4.57-6.53 10.27-6.58 3.4.05 6.54 1.24 8.42 3.16l.18.3 1.33.01-.2-.3C19.2 1.66 15.46 0 11.33 0 5.02 0 0 3.47 0 7.63v13.69c.22 4.06 5.13 7.37 11.32 7.37 4.09 0 7.76-1.61 9.74-3.95z"/>
        <path d="M18.6 34l2.12-9.03-6.11 2.66 3.72-15.68h-7.17l1.86-7.7h22.84L34 11.95h-7.44l-1.6 4.25 8.24-3.45L18.6 34zm3.71-10.89l-1.06 5.31 8.77-13.28-7.18 3.19 3.2-7.44h7.16l1.33-5.58H13.81l-1.33 5.58h7.18L16.2 25.77l6.11-2.66zm28.72-13.7l.01.03c.01.84-.24 1.5-.77 1.99-.53.48-1.27.72-2.2.72-.95 0-1.72-.31-2.3-.92a3.3 3.3 0 0 1-.88-2.38V7.28c0-.97.29-1.76.86-2.37a2.91 2.91 0 0 1 2.24-.93c.97 0 1.72.24 2.27.71.54.48.8 1.14.8 2l-.02.03H49.5c0-.5-.12-.89-.36-1.14-.25-.25-.63-.37-1.14-.37-.48 0-.85.2-1.11.58-.27.38-.4.87-.4 1.48v1.58c0 .61.14 1.11.42 1.5.28.38.67.57 1.17.57.48 0 .83-.12 1.07-.37.23-.25.35-.63.35-1.14h1.54zm8.73-.63c0 .97-.3 1.78-.91 2.41-.62.64-1.42.95-2.4.95s-1.78-.31-2.39-.95a3.34 3.34 0 0 1-.91-2.41V7.35c0-.97.3-1.77.9-2.4.62-.65 1.4-.97 2.39-.97.98 0 1.78.32 2.4.96.62.64.92 1.44.92 2.41v1.43zm-1.58-1.44a2.4 2.4 0 0 0-.46-1.52c-.31-.4-.74-.6-1.28-.6s-.96.2-1.26.6c-.3.4-.45.9-.45 1.52v1.44c0 .63.15 1.14.45 1.53.3.4.73.6 1.27.6s.97-.2 1.27-.6c.3-.4.46-.9.46-1.53V7.34zm5.71 4.69H62.3V4.1h1.59v7.93zm9.16 0h-1.6l-3.2-5.35h-.03v5.35h-1.59V4.1h1.6l3.2 5.34h.03V4.1h1.59v7.93zm8-6.7h-2.27v6.7h-1.59v-6.7h-2.23V4.1h6.09v1.23zm6.57 3.21h-2.94v2.27h3.5v1.22h-5.1V4.1h5.08v1.23h-3.48v1.99h2.94v1.22zm4.43 2.27h3.55v1.22h-5.14V4.1h1.59v6.71zm10.31-2.27h-2.94v2.27h3.5v1.22h-5.1V4.1h5.09v1.23h-3.5v1.99h2.95v1.22zm8.92 2.4c-.25.33-.61.61-1.1.85-.5.24-1.13.36-1.9.36a3.2 3.2 0 0 1-2.35-.91 3.16 3.16 0 0 1-.92-2.35V7.24a3.06 3.06 0 0 1 3.17-3.25c.97 0 1.71.22 2.23.68.51.46.76 1.08.75 1.84l-.02.03h-1.5c0-.42-.12-.75-.36-.98-.24-.23-.6-.35-1.06-.35-.49 0-.88.19-1.18.56-.3.38-.45.86-.45 1.46v1.66c0 .6.16 1.09.46 1.47.3.38.72.56 1.23.56.38 0 .67-.03.9-.11.21-.08.38-.17.5-.29V8.98h-1.52v-1.1h3.12v3.07zm4.11-2.08v3.17h-1.59V4.1h2.75c.9 0 1.6.2 2.12.62.5.41.76.99.76 1.72 0 .4-.1.76-.32 1.06-.22.3-.53.53-.95.71.47.14.8.37 1.01.7.2.32.31.72.31 1.2v.58c0 .22.03.45.1.69.05.24.15.42.3.54v.11h-1.64c-.15-.11-.24-.3-.28-.58a5.07 5.07 0 0 1-.06-.78v-.56c0-.4-.11-.7-.33-.92-.21-.22-.52-.33-.92-.33h-1.26zm0-1.23h1.13c.45 0 .78-.09 1-.28.21-.19.32-.47.32-.84 0-.36-.1-.65-.33-.86-.22-.22-.54-.33-.97-.33h-1.15v2.31zm10.82 2.69h-2.57l-.53 1.71h-1.66l2.67-7.93h1.63l2.66 7.93h-1.66l-.54-1.7zm-2.18-1.25h1.8l-.88-2.8h-.03l-.89 2.8zm7.9.08v2.88h-1.59V4.1h3.04c.91 0 1.63.23 2.15.7.52.46.78 1.07.78 1.83s-.26 1.37-.78 1.83c-.52.46-1.24.7-2.15.7h-1.45zm0-1.22h1.45c.44 0 .78-.12 1-.36.24-.24.35-.55.35-.93s-.11-.7-.34-.94c-.23-.25-.56-.38-1.01-.38h-1.44v2.6zm13.1 4.1h-1.59v-3.3h-3.23v3.3h-1.59V4.1h1.6v3.41h3.22V4.1h1.6v7.93zm-97.15 13.2h-1.03v-5.38h-1.84v-.87h4.7v.87h-1.83v5.38zm6.56 0h-1v-2.9c0-.37-.08-.64-.23-.82-.14-.18-.38-.27-.7-.27-.42 0-.73.12-.93.38-.2.25-.3.67-.3 1.26v2.35h-1v-6.66h1v1.7c0 .27-.01.56-.05.86h.07c.13-.22.32-.4.57-.53.24-.12.53-.19.85-.19 1.15 0 1.72.58 1.72 1.74v3.08zm3.18.09a2.3 2.3 0 0 1-1.73-.64 2.45 2.45 0 0 1-.62-1.78c0-.77.19-1.38.57-1.82a2 2 0 0 1 1.6-.66c.62 0 1.11.18 1.47.56.37.38.55.9.55 1.57v.54H56.3c.02.46.14.82.38 1.06.23.25.56.37.98.37a3.65 3.65 0 0 0 1.56-.34V25c-.24.12-.5.2-.74.25a4.57 4.57 0 0 1-.86.07zm-.19-4.14a1 1 0 0 0-.76.3c-.2.2-.31.5-.35.89h2.15c0-.4-.1-.69-.28-.9a.96.96 0 0 0-.76-.3zm5.99 4.05H62.4v-6.25h3.53v.86h-2.52v1.96h2.36v.87h-2.35v2.56zm6.58 0l-.14-.62h-.05c-.14.22-.34.4-.6.52a2 2 0 0 1-.88.19c-.57 0-1-.14-1.28-.43-.29-.28-.43-.72-.43-1.3V20.5h1.02v2.92c0 .36.07.63.22.81.15.19.38.28.7.28.42 0 .73-.13.93-.38.2-.26.3-.68.3-1.27V20.5h1v4.73H70zm3.7-.72c.25 0 .5-.04.74-.12v.76a2.03 2.03 0 0 1-.43.12c-.18.03-.36.05-.55.05-.95 0-1.43-.5-1.43-1.5v-2.56h-.64v-.44l.69-.37.34-1h.62v1.05h1.35v.76h-1.35v2.53c0 .25.06.43.18.54.13.12.28.18.48.18zm4.73.72l-.14-.62h-.05c-.14.22-.34.4-.6.52a2 2 0 0 1-.88.19c-.58 0-1-.14-1.29-.43-.28-.28-.42-.72-.42-1.3V20.5h1.01v2.92c0 .36.08.63.23.81.14.19.38.28.7.28.42 0 .73-.13.92-.38.2-.26.3-.68.3-1.27V20.5h1.01v4.73h-.79zm4.33-4.81c.2 0 .37 0 .5.04l-.1.94a1.9 1.9 0 0 0-.44-.06c-.4 0-.73.14-.98.4s-.37.6-.37 1.02v2.47h-1V20.5h.78l.13.84h.05c.16-.29.37-.51.62-.68a1.46 1.46 0 0 1 .81-.24zm2.98 4.9a2.3 2.3 0 0 1-1.73-.64 2.45 2.45 0 0 1-.62-1.78c0-.77.2-1.38.58-1.82a2 2 0 0 1 1.59-.66c.62 0 1.12.19 1.48.57.36.37.54.9.54 1.56v.54h-3.15c.01.46.14.82.37 1.06.23.25.56.37.99.37a3.65 3.65 0 0 0 1.56-.34V25c-.25.12-.5.2-.75.25a4.57 4.57 0 0 1-.86.07zm-.18-4.14a1 1 0 0 0-.77.3c-.2.2-.3.5-.34.89h2.14c0-.4-.1-.69-.28-.9a.96.96 0 0 0-.75-.3zm9.06 1.68c0 .77-.2 1.38-.6 1.8-.4.44-.95.66-1.65.66-.45 0-.84-.1-1.18-.3-.34-.2-.6-.49-.78-.86-.18-.37-.27-.8-.27-1.3 0-.77.2-1.37.59-1.8.39-.43.95-.64 1.66-.64.69 0 1.23.21 1.63.66.4.44.6 1.03.6 1.78zm-3.45 0c0 1.1.4 1.64 1.21 1.64.8 0 1.2-.55 1.2-1.64 0-1.08-.4-1.62-1.2-1.62-.43 0-.73.14-.92.42-.2.28-.29.68-.29 1.2zm6.69-1.6H96.7v3.97h-1.01v-3.97h-.78v-.47l.78-.3v-.31c0-.56.13-.98.4-1.25.26-.27.66-.4 1.2-.4.35 0 .7.06 1.04.17l-.26.77a2.32 2.32 0 0 0-.71-.12c-.23 0-.4.06-.5.2-.1.15-.16.36-.16.64v.31h1.16v.76zm5.3 3.97l-1.81-5.22h-.03c.04.78.07 1.5.07 2.18v3.04h-.93v-6.25h1.44l1.74 4.98h.03l1.78-4.98h1.45v6.25h-.98v-3.09a39.65 39.65 0 0 1 .06-2.12h-.03l-1.88 5.21h-.9zm9.19-2.37c0 .77-.2 1.38-.6 1.8-.4.44-.95.66-1.65.66-.44 0-.84-.1-1.18-.3-.34-.2-.6-.49-.78-.86-.18-.37-.27-.8-.27-1.3 0-.77.2-1.37.59-1.8.4-.43.95-.64 1.66-.64.69 0 1.23.21 1.63.66.4.44.6 1.03.6 1.78zm-3.45 0c0 1.1.4 1.64 1.21 1.64.8 0 1.2-.55 1.2-1.64 0-1.08-.4-1.62-1.2-1.62-.43 0-.73.14-.92.42-.2.28-.29.68-.29 1.2zm8.48 2.37h-1.01v-2.9c0-.37-.08-.64-.22-.82-.15-.18-.38-.27-.7-.27-.43 0-.74.12-.94.37-.2.26-.3.68-.3 1.27v2.35h-1V20.5h.79l.14.62h.05a1.4 1.4 0 0 1 .61-.52c.26-.12.55-.19.87-.19 1.14 0 1.7.58 1.7 1.74v3.08zm3.17.09a2.3 2.3 0 0 1-1.73-.64 2.45 2.45 0 0 1-.62-1.78c0-.77.2-1.38.58-1.82a2 2 0 0 1 1.59-.66c.62 0 1.12.18 1.48.56.36.38.54.9.54 1.57v.54h-3.15c.01.46.14.82.37 1.06.23.25.56.37.99.37a3.63 3.63 0 0 0 1.56-.34V25c-.25.12-.5.2-.75.25a4.57 4.57 0 0 1-.86.07zm-.18-4.14c-.32 0-.58.1-.77.3-.2.2-.3.5-.35.89h2.15c0-.4-.1-.69-.28-.9a.96.96 0 0 0-.75-.3zm1.98-.68h1.1l.96 2.68c.14.39.24.75.29 1.08h.03c.03-.15.07-.34.14-.57.07-.22.43-1.29 1.1-3.19h1.08l-2.03 5.36c-.36.99-.98 1.48-1.84 1.48-.22 0-.44-.02-.65-.07v-.8c.15.04.33.05.52.05.48 0 .83-.28 1.02-.84l.18-.45-1.9-4.73z"/>
    </g>
</svg>