<svg xmlns="http://www.w3.org/2000/svg" viewBox="0 0 32 36" width="100%" height="100%">
  <g fill="#0049DE">
    <path d="M27.35 6.58a14.69 14.69 0 0 0-9.18-3.4 14.1 14.1 0 0 0-9.8 3.92 14.12 14.12 0 0 0-4.45 9.56v.41h1.65v-.3a12.61 12.61 0 0 1 12.6-11.73c3 0 5.78 1.03 8.05 2.88l.1.1 1.24-1.23-.2-.2z"/>
    <path d="M25.7 22.94a9.4 9.4 0 0 1-7.53 3.8 9.21 9.21 0 0 1 0-18.41c3 0 5.78 1.44 7.53 3.8l.1.21 1.25-1.23-.1-.1a10.92 10.92 0 0 0-8.78-4.32 10.78 10.78 0 0 0-10.94 10.8c0 6.06 4.95 10.9 10.94 10.9 3.4 0 6.7-1.65 8.77-4.32l.1-.1-1.23-1.24-.1.2zm3.62-14.3c-.31-.3-.52-.72-.83-1.03l-.1-.1-1.24 1.23.1.1c.31.31.62.62.83 1.03l.1.21 1.24-1.23-.1-.21z"/>
    <path d="M26.22 27.15l-.1.1a12.64 12.64 0 0 1-8.06 2.89c-6.6 0-12.18-5.15-12.59-11.73V18H3.82v.41c.2 3.6 1.86 7 4.44 9.57 2.68 2.47 6.2 3.9 9.8 3.9 3.41 0 6.61-1.23 9.2-3.39l.1-.1-1.14-1.24zm1.96-2.05l-.1.2c-.2.31-.52.62-.83 1.03l-.1.1 1.24 1.24.1-.1c.31-.31.62-.72.83-1.03l.1-.1-1.24-1.34z"/>
    <path d="M30.35 27.57A15.79 15.79 0 0 1 2.38 17.49 15.7 15.7 0 0 1 18.16 1.75c4.75 0 9.18 2.06 12.18 5.76l.1.2 1.24-1.23-.1-.1A17.38 17.38 0 0 0 18.17.1 17.5 17.5 0 0 0 .62 17.6a17.5 17.5 0 0 0 17.55 17.48c5.16 0 10.11-2.26 13.42-6.27l.1-.1-1.24-1.24-.1.1z"/>
  </g>
</svg>