
<svg xmlns="http://www.w3.org/2000/svg" viewBox="0 0 109 26" width="100%" height="100%">
    <path fill-rule="evenodd" d="M57.62 3.23v9.04c0 .26.13.3.35.3.74 0 1.48.02 2.23 0 .98-.04 1.55-.57 1.57-1.55.03-2.12.02-4.25 0-6.37-.01-.84-.43-1.34-1.21-1.4-.96-.07-1.92-.02-2.95-.02m8.52 22.71h-3.32c-.3.01-.34-.17-.4-.4-.79-3.21-1.6-6.42-2.38-9.64-.1-.38-.25-.5-.63-.48-.43.03-.87.03-1.3 0-.4-.03-.5.12-.5.5.02 3.13.01 6.25.01 9.37 0 .12.04.26 0 .37-.06.1-.18.26-.28.27h-3.7V.12c.13 0 .3-.03.46-.03h7.31c.5 0 1 .04 1.47.16a3.49 3.49 0 0 1 2.85 3.5c.04 2.63.06 5.28-.01 7.91-.04 1.45-.62 2.7-2.03 3.36-.33.16-.2.38-.16.58l1.81 7.06c.25.95.5 1.91.73 2.87l.07.42zM34.29 6.47V4.65c0-.89-.46-1.39-1.35-1.44a13.75 13.75 0 0 0-1.4 0c-.75.04-1.28.48-1.31 1.24-.07 1.58-.07 3.17-.08 4.75 0 .44.21.8.63 1l3.83 1.9c.6.3 1.18.63 1.8.9 1.38.6 1.87 1.67 1.82 3.12-.06 1.85-.06 3.7-.08 5.54-.02 2.56-1.27 4.02-3.8 4.18-1.63.1-3.27.1-4.88-.1-2.07-.26-3.23-1.66-3.37-3.77-.05-.8 0-1.6 0-2.5h3.94v1.5c0 1.28.48 1.76 1.77 1.77h.98c.88-.01 1.37-.45 1.4-1.33.02-1.62.03-3.23-.02-4.85 0-.28-.25-.65-.5-.81-.69-.44-1.43-.8-2.16-1.17-1.18-.6-2.35-1.2-3.54-1.75-1.28-.6-1.83-1.58-1.8-2.97.04-1.83 0-3.67.03-5.5a6.63 6.63 0 0 1 .23-1.6A3.39 3.39 0 0 1 29.67.13a31.69 31.69 0 0 1 5.34.08c1.97.2 3.13 1.59 3.24 3.59.04.77 0 1.55.02 2.32 0 .25-.09.36-.36.36H34.3m37.82 16.27c.2.01.42.04.63.04h6.85c.67 0 .67 0 .67.7v2.04c.01.3-.07.42-.39.41H68.41c-.42 0-.38-.23-.38-.5V.11l.58-.03L79.69.07c.44 0 .6.1.58.56-.04.84-.01 1.67-.01 2.57H72.1l-.03.5-.01 6.66c0 .4.1.54.51.53 1.34-.02 2.67 0 4 0h.59v3.1l-.5.03H72.5c-.25 0-.45 0-.45.35l.01 8.2.04.18M18.78 9.45L21.15 0h3.5l-1.7 6.39c-.54 1.99-1.08 3.97-1.6 5.96-.06.25-.04.53.02.77l3.14 12.34.05.24h-2.52c-1.15 0-1.14 0-1.38-1.13l-1.8-8.22c-.02-.13-.07-.25-.15-.5-.1.3-.15.49-.2.68-.77 2.92-1.55 5.83-2.3 8.76-.09.3-.2.43-.53.42-1-.02-2.01 0-3.1 0l.74-2.7c.92-3.3 1.85-6.6 2.75-9.9a1.67 1.67 0 0 0-.01-.85c-1.1-3.94-2.22-7.87-3.34-11.8L12.6 0h3.68l2.38 9.44h.12M94.51.08V3.2h-.55l-7.03-.01c-.46 0-.62.1-.61.59.03 2.15.01 4.31.01 6.47 0 .63 0 .63.6.63h4.5v3.1l-.52.03h-4.1c-.36-.01-.48.1-.48.47 0 2.61.01 5.22 0 7.83-.01.43.2.47.53.47h7.08c.47-.01.62.1.6.6-.04.82-.01 1.66-.01 2.52H82.39l-.02-.56c0-8.23 0-16.46-.02-24.7 0-.48.15-.58.6-.58 3.67.02 7.33 0 11 0h.56zM3.99 25.68H0V.03h10.47l.87 3.14H4v7.54h4.98v3.25H3.99V25.7zm100.6.26c-1.3 0-2.52 0-3.74-.02-.1 0-.23-.18-.28-.3-.05-.1-.01-.25-.01-.37V3.23l-.54-.02h-3.08c-.3 0-.45-.07-.45-.4.02-.78.01-1.56 0-2.33 0-.26.08-.4.37-.4h11.6c.06 0 .12.03.2.05V3.2h-1.25c-.8 0-1.59.01-2.38-.01-.35-.01-.48.11-.44.46v22.27zM39.62 3.2V.1h12.1v3.07l-.48.03c-1 0-2 .02-2.98-.01-.48-.02-.6.13-.6.6v22.1h-3.94l-.03-.63V3.9c0-.68 0-.68-.69-.68h-3.38"/>
</svg>