<svg xmlns="http://www.w3.org/2000/svg" viewBox="0 0 145 26" width="100%" height="100%">
    <path d="M97.17 25.22c-1.37-.68-2.94-2.35-2.94-3.1 0-.28 3.35-1.38 4.15-1.38.15 0 .4.28.57.6.57 1.03 2.4 1.5 3.55.9.7-.37 1.22-1.57 1.22-2.77 0-.9-.05-1-.3-.67-1.12 1.42-4.05 1.9-6.07.97A6.78 6.78 0 0 1 94.1 16c-.67-2-.45-4.98.5-6.7 1.68-3.08 5.45-4.23 8.1-2.48.55.38 1.05.58 1.12.45.08-.12.45-.27.83-.37.4-.08 1.42-.35 2.32-.6l1.63-.45-.08 7.5c-.07 7.5-.07 7.52-.7 8.84-.72 1.5-2.73 3.78-6.9 3.78-2.02 0-2.5-.13-3.74-.75zm5.15-9c1.03-.47 1.48-1.65 1.35-3.47-.15-1.98-.85-2.75-2.55-2.75-1.52 0-2.2.8-2.34 2.72-.2 2.85 1.42 4.45 3.55 3.5zm-63.45 4.53c-1.7-.68-3-1.45-3.83-3-.6-1.13-.67-1.9-.67-4 0-1.98.2-3.18.67-4.06.88-1.65 1.35-2.17 2.95-3a6.62 6.62 0 0 1 3.84-.87c1.8.03 2.73.43 3.56.88a6.78 6.78 0 0 1 3.77 5.55l.13 1.42-1.58.43c-.87.25-2.72.75-4.1 1.15-1.37.37-2.84.77-3.3.87-1.77.35.05 1.63 2.35 1.63 1.63 0 3.05-.55 4.15-1.6.38-.35.78-.65.88-.65.1 0 .45.8.75 1.8.65 1.95.7 1.8-.95 2.67-2.5 1.32-6.3 1.65-8.63.78zm3-8.5l2.32-.63c.42-.15-.25-1.5-.93-1.87-1.4-.73-3.52.2-3.87 1.67l-.3 1.15c-.13.38-.05.45.33.35l2.45-.67zm10.92 8.52a6.85 6.85 0 0 1-2.18-1.27c-.85-.83-1.57-2.38-1.27-2.7.17-.18 2.05-.7 3.3-.95.67-.13.8-.08 1.1.62.8 1.93 4.5 2.05 4.5.15 0-.77-.46-1-3.25-1.6-4.05-.9-5.63-2.25-5.45-4.67.15-1.63.87-2.68 2.52-3.53 1.18-.62 1.58-.67 4.05-.7 2.52 0 2.87.05 4.17.7 1.4.68 2.45 1.88 2.45 2.75 0 .25-.62.53-2.02.93-1.1.3-2.05.5-2.08.45a18.63 18.63 0 0 0-.45-.73c-.67-1.07-3.44-1.2-3.64-.15-.13.63 1.05 1.2 3.45 1.7 2.47.5 3.34.88 4.14 1.78a3.5 3.5 0 0 1 1.1 2.7c0 3.12-2.7 5-7.17 5a11.05 11.05 0 0 1-3.27-.48zm63.18.07c-1.87-.8-2.82-2.42-2.82-4.72 0-2.82 1.67-4.87 4.15-5.07a3.46 3.46 0 0 1 3.54 2c.55 1.02.53 1.1-.45 1.32-.52.15-.67.1-.67-.25 0-.65-1.38-1.87-2.1-1.87-1.47 0-2.4.85-2.9 2.75-.55 2.05.53 4.42 2.2 4.82 1.3.3 2.8-.82 2.8-2.1 0-.42.1-.5.57-.37.3.07.63.15.75.15.35 0 .18.8-.37 1.77a4.29 4.29 0 0 1-3.23 1.98c-.32-.03-1-.2-1.47-.4zm8.75-.14a5.63 5.63 0 0 1-1.83-1.6c-.65-.93-.72-1.26-.72-2.9 0-2 .22-2.65 1.27-3.78 1.73-1.87 4.08-1.92 5.95-.12 1 .97 1.4 2.15 1.4 3.97-.02 2.23-1.02 3.8-2.9 4.6-1.22.5-1.87.47-3.17-.17zm3.55-1.63c.92-.88 1.35-2.75.95-4.15-1.08-3.82-5-3.47-5.65.5-.53 3.37 2.47 5.7 4.7 3.65zM0 11.87v-9.1l1.07-.27c.58-.17 1.83-.5 2.75-.75 1.5-.42 1.7-.42 1.58-.1-.08.23-.15 4.65-.15 9.87V21H0v-9.13zm6.5 2.25V7.27l1.6-.5c.87-.27 2-.57 2.5-.65.9-.17.9-.17.9.7v.9l1.3-.8c1.15-.72 1.47-.8 3.2-.8 1.65 0 2.05.1 2.92.68 1.8 1.17 1.95 1.77 2.02 8.4l.08 5.8h-5l-.07-5.03c-.08-4.62-.13-5.05-.55-5.37-.58-.43-1.98-.45-2.7-.08-.98.53-1.2 1.68-1.2 6.23V21h-5v-6.88zm18.62 6.58c-.6-1.6-4.63-13.9-4.63-14.13 0-.25.6-.32 2.33-.32 1.25 0 2.42.1 2.55.2.15.1.75 1.97 1.35 4.17 1.07 3.95 1.5 5.18 1.52 4.38a107 107 0 0 1 2.38-8.5c.25-.4 4.87-.33 4.87.07 0 .18-1.05 3.45-2.32 7.3l-2.35 7-2.8.07c-2.08.05-2.83-.02-2.9-.25zm40.99 0a3.2 3.2 0 0 1-2.13-2.18c-.12-.5-.25-4.02-.25-7.82V3.75l.7-.15c.38-.07 1.4-.38 2.28-.63.87-.25 1.67-.47 1.8-.47s.22.85.22 1.88v1.87h1.63c1.82 0 1.8-.05 1.22 2.05l-.42 1.45h-2.43v3.47c0 4.05.05 4.15 2 3.98.75-.08 1.25-.03 1.25.12 0 .13-.22 1.03-.5 1.95L70.96 21l-2.05-.03c-1.13 0-2.38-.12-2.8-.27zm6.12-6.43c0-5.07.08-6.77.33-6.95a8.37 8.37 0 0 1 1.92-.67c.9-.25 1.95-.55 2.35-.68.58-.17.68-.15.55.18-.07.22-.15 3.65-.15 7.62V21h-5v-6.73zm6.25-.15V7.27l1.82-.55c.98-.27 2.1-.62 2.5-.72.65-.23.68-.2.68.75v.97l1.3-.8c1.15-.72 1.47-.8 3.17-.8 2.43 0 3.45.58 4.38 2.43.65 1.27.65 1.37.65 6.87V21H88l-.07-5.02c-.08-4.62-.13-5.05-.55-5.37-.58-.43-1.98-.45-2.7-.08-.98.53-1.2 1.68-1.2 6.23v4.24h-5v-6.87zm31.74 5.75v-1.13h2V21h-2zm21.8-3.67l.07-4.8.7-.18c.6-.15.68-.12.68.43v.57l.9-.6a3.47 3.47 0 0 1 1.77-.62c1 0 2.2.57 2.43 1.15.15.37.22.37.72-.08a3.36 3.36 0 0 1 2.47-1.07c1.13 0 1.95.47 2.63 1.47.52.8.57 1.1.57 4.68V21h-1.5v-3.55c0-3.9-.2-4.68-1.27-5.05a2.04 2.04 0 0 0-2.48.92c-.42.7-.5 1.25-.5 4.25V21h-1.47l-.08-4c-.07-3.63-.12-4-.57-4.35-.65-.5-1.62-.5-2.35 0-1 .72-1.27 1.82-1.27 5.22V21h-1.5l.05-4.8zM72.28 3.55l.08-2.17L74.23.9c1.02-.28 1.93-.57 1.95-.7.05-.1.35-.2.65-.2.5 0 .52.08.45 1.95a21.98 21.98 0 0 1-.18 2.22c-.05.15-.62.4-1.3.55-.64.13-1.74.43-2.4.63l-1.2.35.08-2.15z"/>
</svg>