<svg xmlns="http://www.w3.org/2000/svg" xmlns:xlink="http://www.w3.org/1999/xlink" viewBox="0 0 436 482" width="100%" height="100%">
    <defs>
        <path id="a" d="M344.54 0l-26.37 16.89c66.57 104.38 89 239.94 96.6 322.25-36.41-68.05-101.1-178.5-188.6-286.9l-24.31 19.73c90.32 111.88 155.66 225.63 190.2 291.16C229 248.21 126.83 115.86 125.08 113.57l-24.9 18.95c1.72 2.26 98.04 127.17 253.88 241.63-71.88-23.7-183.45-68.7-307.96-149.33l-17 26.3C170.8 342.89 294.3 389.3 366 411.1c-74.46 10.18-206.4 11.98-351.8-62.14L0 376.9c152.07 77.5 288.55 76.68 367.8 65.94-68.02 41.3-193.56 90.26-348.94 26.18L6.94 497.98c171.6 70.77 310.08 13.37 382.79-32.2C345.98 529.7 245.4 619.92 33.87 591.16l-4.21 31.04C317.18 661.3 418.3 488.5 442.85 433.61c87.57 52.98 188.5 97.09 298.21 116.74l-1.33-31.92c-100.65-19.02-193.61-59.47-275.1-108.06 43.73-34.12 136.16-123.7 130.12-268.53-1.54-37-9.54-77.64-26.45-121.84L539.08 31.2c64.57 168.84-10.54 278.06-65.45 330.82 18.91-50.03 40.83-126.36 37.5-206.1C509 104.77 496.49 52.32 466.12 4.7l-26.37 16.9c67.39 105.62 35.22 243.04 7.09 321.52C439.78 258.66 417.16 113.88 344.54 0z"/>
        <linearGradient id="b" x1="95.19%" x2="10.3%" y1="95.89%" y2="26.62%">
            <stop offset="0%" stop-color="#FFF"/>
            <stop offset="100%" stop-color="#54FFF6"/>
        </linearGradient>
    </defs>
    <g fill="none" fill-rule="evenodd" transform="rotate(-95 253.79 240.15)">
        <mask id="c" fill="#fff">
            <use xlink:href="#a"/>
        </mask>
        <path fill="url(#b)" d="M344.54 0l-26.37 16.89c66.57 104.38 89 239.94 96.6 322.25-36.41-68.05-101.1-178.5-188.6-286.9l-24.31 19.73c90.32 111.88 155.66 225.63 190.2 291.16C229 248.21 126.83 115.86 125.08 113.57l-24.9 18.95c1.72 2.26 98.04 127.17 253.88 241.63-71.88-23.7-183.45-68.7-307.96-149.33l-17 26.3C170.8 342.89 294.3 389.3 366 411.1c-74.46 10.18-206.4 11.98-351.8-62.14L0 376.9c152.07 77.5 288.55 76.68 367.8 65.94-68.02 41.3-193.56 90.26-348.94 26.18L6.94 497.98c171.6 70.77 310.08 13.37 382.79-32.2C345.98 529.7 245.4 619.92 33.87 591.16l-4.21 31.04C317.18 661.3 418.3 488.5 442.85 433.61c87.57 52.98 188.5 97.09 298.21 116.74l-1.33-31.92c-100.65-19.02-193.61-59.47-275.1-108.06 43.73-34.12 136.16-123.7 130.12-268.53-1.54-37-9.54-77.64-26.45-121.84L539.08 31.2c64.57 168.84-10.54 278.06-65.45 330.82 18.91-50.03 40.83-126.36 37.5-206.1C509 104.77 496.49 52.32 466.12 4.7l-26.37 16.9c67.39 105.62 35.22 243.04 7.09 321.52C439.78 258.66 417.16 113.88 344.54 0z" mask="url(#c)"/>
    </g>
</svg>