<svg xmlns="http://www.w3.org/2000/svg" xmlns:xlink="http://www.w3.org/1999/xlink" width="100%" height="100%" viewBox="0 0 137 74">
    <defs>
        <path id="a" d="M4.102.4c-3.43 10.095 2.26 14.895 4.12 16.147-2.108 2.302-4.047 4.975-5.497 7.974H.782l-.314 1.541.188 1.709.847.184 2.228-.184.346-1.464-.152-1.59c1.344-2.697 3.098-5.12 5.006-7.23.96 1.804 3.633 5.733 9.029 6.485 1.378.192 2.936.177 4.686-.136l-.213-1.127c-6.686 1.194-10.206-2.242-11.778-4.574 1.72 1.016 4.39 2.317 7.36 2.73 1.907.267 3.932.167 5.902-.607l-.443-1.063c-4.369 1.72-9.228-.36-11.935-1.9 3.172.313 8.68.468 13.39-1.384l-.442-1.064c-4.318 1.7-9.484 1.599-12.579 1.322 2.767-.857 7.296-2.446 11.907-4.872l-.562-1.008c-4.758 2.504-9.414 4.096-12.075 4.901 5.373-5.103 10.97-7.897 11.067-7.945l-.528-1.023c-.096.046-5.378 2.678-10.684 7.525 1.372-2.43 3.804-6.147 7.645-10.092l-.855-.788c-4.37 4.489-6.937 8.626-8.238 11.062.137-2.75.98-7.514 4.724-12.254l-.935-.698C9.46 5.935 8.548 10.855 8.4 13.782 7.342 11.056 6.398 6.206 9.84 1.038L8.851.415C5.05 6.122 6.217 11.494 7.398 14.419 5.338 12.414 2.697 8.188 5.22.76L4.102.401z"/>
        <linearGradient id="b" x1="-14.721%" x2="89.072%" y1="76.167%" y2="24.424%">
            <stop offset="0%" stop-color="#54FFF6"/>
            <stop offset="100%" stop-color="#004BDA"/>
        </linearGradient>
    </defs>
    <g fill="none" fill-rule="evenodd">
        <g fill="#000">
            <path d="M6.015 26.097v18.585l3.855.304c1.07 0 2.046-.23 2.93-.692a6.642 6.642 0 0 0 2.267-1.953c.628-.84 1.115-1.851 1.465-3.03.35-1.18.524-2.497.524-3.954 0-1.29-.17-2.501-.508-3.63-.34-1.127-.844-2.106-1.512-2.938a7.128 7.128 0 0 0-2.513-1.968c-1.008-.482-2.18-.724-3.516-.724H6.015zm-1.697-1.36h6.138c1.562 0 2.976.22 4.241.662 1.265.442 2.333 1.093 3.208 1.955.874.862 1.547 1.929 2.02 3.2.472 1.273.71 2.73.71 4.373 0 3.344-.87 5.982-2.607 7.91-1.738 1.93-4.364 3.099-7.88 3.51H.154L0 45.31l2.776-.416v-18.44L0 25.772l.154-1.035h4.164zM30.813 38.958l-4.472 1.855c-.227.227-.386.49-.478.788-.093.299-.14.614-.14.943 0 .784.186 1.334.556 1.654.37.32.781.479 1.234.479.432 0 .822-.097 1.172-.293.35-.197.627-.366.832-.51l1.296-.897v-4.019zm-1.943-7.574c.966 0 1.763.072 2.39.217.627.144 1.126.401 1.496.772.37.371.627.871.772 1.5.143.628.215 1.437.215 2.426v6.06c0 .659.047 1.15.139 1.468.093.32.22.603.386.85h1.542l.122 1.082-3.978.773-.956-2.38-3.67 2.689c-1.338 0-2.427-.35-3.27-1.05-.843-.701-1.265-1.67-1.265-2.907 0-.556.093-1.051.279-1.484a6.83 6.83 0 0 1 .8-1.36l6.94-2.318v-1.547c0-.452-.015-.865-.045-1.236a2.692 2.692 0 0 0-.232-.943 1.284 1.284 0 0 0-.555-.587c-.247-.134-.576-.202-.987-.202-.412 0-.848.058-1.311.17a8.57 8.57 0 0 0-1.218.387l-.524 2.443h-2.653v-2.35l5.583-2.473zM41.053 46.347h-3.547l-.154-1.036L39.51 45V33.706l-2.16.198-.154-1.106 3.702-.98h1.326l.155 2.55 4.564-3.014c.987 0 1.784.088 2.39.264.607.175 1.07.464 1.388.866.32.402.535.923.648 1.563.113.64.17 1.424.17 2.352v8.604l2.344.309-.154 1.036h-6.508l-.155-1.036L48.61 45v-8.853c0-.804-.175-1.393-.524-1.764-.35-.372-.853-.558-1.511-.558-.535 0-1.07.145-1.604.437-.535.29-1.07.613-1.604.965l-.925.623v9.15l1.697.31-.155 1.036h-2.93zM61.009 44.368c.41 0 .873-.103 1.388-.309.513-.205 1.038-.526 1.573-.958l.925-.743v-8.192a3.564 3.564 0 0 0-1.295-.912c-.515-.216-1.1-.324-1.758-.324-1.234 0-2.217.525-2.946 1.577-.73 1.05-1.095 2.493-1.095 4.327 0 1.732.303 3.087.91 4.065.606.98 1.372 1.469 2.298 1.469zm6.816-2.01c0 .619.047 1.093.139 1.423.092.33.221.608.386.835h1.727l.124 1.143-4.134.773-.956-2.38-3.979 2.689c-.987 0-1.876-.175-2.667-.525a5.767 5.767 0 0 1-2.021-1.469c-.555-.628-.982-1.386-1.28-2.272-.299-.885-.447-1.865-.447-2.937 0-1.257.18-2.365.54-3.323a6.927 6.927 0 0 1 1.541-2.458 7.488 7.488 0 0 1 2.391-1.623c.926-.402 1.953-.685 3.084-.85.144 0 .33.026.556.078.226.05.462.118.71.2.246.083.487.175.724.278.236.103.447.197.632.279v-5.812h-2.159l-.155-1.036 3.702-.945 1.542-.122v18.054zM80.625 37.103c0-.62-.037-1.187-.108-1.7-.073-.515-.212-.954-.417-1.317a2.173 2.173 0 0 0-.863-.85c-.37-.205-.854-.306-1.45-.306-.946 0-1.707.382-2.282 1.147-.576.766-.926 1.774-1.05 3.026h6.17zm-6.2 1.391c0 .887.113 1.696.34 2.427.225.732.56 1.366 1.003 1.902.44.535.981.953 1.618 1.251.637.3 1.358.449 2.159.449.617 0 1.27-.129 1.96-.387.688-.257 1.32-.561 1.896-.912l.493 1.175c-.74.515-1.578.979-2.513 1.391a23.64 23.64 0 0 1-2.884 1.051c-.926 0-1.82-.165-2.684-.495a6.597 6.597 0 0 1-2.267-1.437c-.647-.628-1.167-1.412-1.558-2.35-.39-.937-.586-2.013-.586-3.23 0-1.133.166-2.144.494-3.03a6.807 6.807 0 0 1 1.404-2.303 7.701 7.701 0 0 1 2.205-1.623c.863-.433 1.82-.762 2.869-.99 1.006 0 1.86.15 2.559.45.7.298 1.265.71 1.697 1.236.43.525.74 1.143.926 1.855.185.71.278 1.468.278 2.272v1.298h-9.409zM89.415 46.316h-3.547l-.155-1.036 2.16-.31V26.393h-2.16l-.154-1.067 3.701-.945 1.542-.122v20.713l2.314.309-.154 1.036zM98.36 46.347h-3.548l-.154-1.036 2.16-.31V33.719l-2.16.185-.154-1.082 3.701-.958 1.542-.123v13.262l2.314.309-.154 1.036zM106.841 38.803c0 .887.108 1.721.324 2.504.216.784.524 1.475.926 2.072a4.768 4.768 0 0 0 1.45 1.422c.565.35 1.187.525 1.865.525.617 0 1.157-.149 1.619-.448a3.754 3.754 0 0 0 1.172-1.237c.32-.525.555-1.144.71-1.854.154-.711.231-1.489.231-2.334 0-.99-.114-1.886-.339-2.69-.226-.804-.54-1.489-.94-2.055-.401-.567-.88-1.01-1.435-1.33a3.644 3.644 0 0 0-1.85-.48c-.617 0-1.162.15-1.636.449-.473.299-.863.712-1.172 1.237-.307.525-.539 1.148-.693 1.87a11.245 11.245 0 0 0-.232 2.35m4.504-7.42c1.028 0 1.963.191 2.806.572a6.625 6.625 0 0 1 2.174 1.562 6.901 6.901 0 0 1 1.404 2.348c.328.908.494 1.887.494 2.937 0 2.309-.664 4.127-1.99 5.457s-3.192 2.19-5.597 2.581c-1.03 0-1.965-.185-2.808-.556a6.346 6.346 0 0 1-2.175-1.561 7.11 7.11 0 0 1-1.402-2.35c-.33-.897-.494-1.87-.494-2.921 0-2.329.662-4.153 1.99-5.472 1.326-1.319 3.191-2.184 5.598-2.597M123.528 46.347h-3.548l-.154-1.036 2.16-.31V33.706l-2.16.198-.154-1.106 3.702-.98h1.325l.154 2.55 4.565-3.014c.987 0 1.784.088 2.391.264.607.175 1.07.464 1.388.866.319.402.534.923.648 1.563.112.64.17 1.424.17 2.352v8.604l2.343.309-.154 1.036h-6.508l-.154-1.036 1.543-.31v-8.853c0-.804-.175-1.393-.525-1.764-.35-.372-.853-.558-1.512-.558-.534 0-1.07.145-1.603.437-.535.29-1.07.613-1.605.965l-.925.623v9.15l1.698.31-.155 1.036h-2.93zM3.547 70.352c.473.577 1.1 1.046 1.882 1.407.78.36 1.603.54 2.467.54 1.337 0 2.37-.37 3.1-1.113.73-.74 1.095-1.679 1.095-2.812 0-1.052-.304-1.896-.91-2.535-.607-.64-1.373-1.164-2.298-1.577l-3.732-1.638a14.26 14.26 0 0 1-1.573-.82 5.367 5.367 0 0 1-1.28-1.066 4.922 4.922 0 0 1-.863-1.422c-.216-.535-.325-1.144-.325-1.824 0-.845.186-1.603.556-2.272.37-.67.879-1.263 1.526-1.778.649-.515 1.424-.953 2.329-1.314a18.18 18.18 0 0 1 2.961-.881c.987 0 1.98.154 2.976.464a8.875 8.875 0 0 1 2.669 1.33v4.173h-1.542l-.895-2.813a6.296 6.296 0 0 0-1.434-1.067c-.545-.298-1.28-.448-2.206-.448-1.233 0-2.19.303-2.868.912-.679.608-1.018 1.437-1.018 2.488 0 .866.267 1.572.802 2.118.535.546 1.234 1.004 2.097 1.376l3.547 1.545c.617.268 1.198.567 1.743.897a6.49 6.49 0 0 1 1.45 1.19c.42.464.75.995.987 1.592.236.598.355 1.288.355 2.071 0 .722-.134 1.433-.402 2.133-.267.7-.704 1.355-1.311 1.964-.606.608-1.408 1.154-2.406 1.638-.997.484-2.215.881-3.654 1.19-1.42 0-2.632-.186-3.64-.556a9.694 9.694 0 0 1-2.745-1.546l-.679-4.173h2.16l1.08 2.627zM26.864 64.17c0-.621-.035-1.188-.108-1.702-.072-.514-.21-.953-.416-1.316a2.17 2.17 0 0 0-.864-.85c-.37-.204-.853-.306-1.45-.306-.946 0-1.707.382-2.281 1.147-.577.766-.926 1.774-1.05 3.026h6.17zm-6.2 1.39c0 .887.113 1.696.34 2.427a5.49 5.49 0 0 0 1.003 1.902c.441.535.981.953 1.618 1.251.638.3 1.358.449 2.16.449.617 0 1.27-.129 1.959-.387.688-.257 1.32-.561 1.897-.912l.493 1.175c-.74.515-1.579.979-2.514 1.391-.936.412-1.897.762-2.884 1.051-.925 0-1.82-.165-2.683-.495a6.583 6.583 0 0 1-2.267-1.437c-.648-.628-1.168-1.412-1.558-2.35-.39-.937-.586-2.013-.586-3.23 0-1.133.164-2.144.494-3.03a6.794 6.794 0 0 1 1.403-2.303 7.705 7.705 0 0 1 2.206-1.623 12.13 12.13 0 0 1 2.868-.99c1.007 0 1.86.15 2.56.45.699.299 1.265.71 1.696 1.236.432.525.74 1.143.926 1.855a9.01 9.01 0 0 1 .277 2.272v1.298h-9.408zM41.515 64.17c0-.621-.036-1.188-.108-1.702-.073-.514-.211-.953-.417-1.316a2.168 2.168 0 0 0-.863-.85c-.37-.204-.854-.306-1.45-.306-.946 0-1.707.382-2.282 1.147-.576.766-.926 1.774-1.05 3.026h6.17zm-6.2 1.39c0 .887.113 1.696.34 2.427a5.49 5.49 0 0 0 1.003 1.902c.441.535.981.953 1.618 1.251.638.3 1.358.449 2.16.449.616 0 1.27-.129 1.958-.387.689-.257 1.32-.561 1.897-.912l.494 1.175c-.741.515-1.579.979-2.514 1.391-.937.412-1.897.762-2.884 1.051-.925 0-1.82-.165-2.683-.495a6.583 6.583 0 0 1-2.267-1.437c-.648-.628-1.168-1.412-1.558-2.35-.392-.937-.586-2.013-.586-3.23 0-1.133.164-2.144.493-3.03a6.796 6.796 0 0 1 1.403-2.303 7.701 7.701 0 0 1 2.206-1.623c.864-.432 1.82-.762 2.869-.99 1.006 0 1.86.15 2.56.45.699.299 1.264.71 1.696 1.236.431.525.74 1.143.926 1.855a9.01 9.01 0 0 1 .277 2.272v1.298h-9.408zM53.235 71.434c.411 0 .874-.103 1.388-.31.514-.205 1.038-.525 1.573-.958l.926-.741v-8.192a3.565 3.565 0 0 0-1.296-.913c-.514-.216-1.1-.324-1.758-.324-1.234 0-2.215.525-2.946 1.576-.73 1.051-1.094 2.494-1.094 4.328 0 1.731.303 3.087.91 4.066.606.979 1.372 1.468 2.297 1.468zm6.817-2.01c0 .619.046 1.093.138 1.423.093.33.221.608.386.834h1.727l.124 1.144-4.133.773-.956-2.38-3.98 2.689c-.986 0-1.875-.175-2.667-.526a5.766 5.766 0 0 1-2.02-1.467c-.555-.63-.983-1.386-1.28-2.273-.3-.886-.448-1.865-.448-2.937 0-1.256.18-2.364.54-3.323a6.931 6.931 0 0 1 1.542-2.458 7.488 7.488 0 0 1 2.39-1.623c.926-.401 1.954-.685 3.085-.85.144 0 .329.026.555.078.226.051.462.118.71.2.246.083.487.176.724.279.236.103.447.195.633.278v-5.812h-2.16l-.154-1.036 3.702-.944 1.542-.122v18.054z"/>
        </g>
        <g transform="translate(96)">
            <mask id="c" fill="#fff">
                <use xlink:href="#a"/>
            </mask>
            <path fill="url(#b)" d="M4.102.4c-3.43 10.095 2.26 14.895 4.12 16.147-2.108 2.302-4.047 4.975-5.497 7.974H.782l-.314 1.541.188 1.709.847.184 2.228-.184.346-1.464-.152-1.59c1.344-2.697 3.098-5.12 5.006-7.23.96 1.804 3.633 5.733 9.029 6.485 1.378.192 2.936.177 4.686-.136l-.213-1.127c-6.686 1.194-10.206-2.242-11.778-4.574 1.72 1.016 4.39 2.317 7.36 2.73 1.907.267 3.932.167 5.902-.607l-.443-1.063c-4.369 1.72-9.228-.36-11.935-1.9 3.172.313 8.68.468 13.39-1.384l-.442-1.064c-4.318 1.7-9.484 1.599-12.579 1.322 2.767-.857 7.296-2.446 11.907-4.872l-.562-1.008c-4.758 2.504-9.414 4.096-12.075 4.901 5.373-5.103 10.97-7.897 11.067-7.945l-.528-1.023c-.096.046-5.378 2.678-10.684 7.525 1.372-2.43 3.804-6.147 7.645-10.092l-.855-.788c-4.37 4.489-6.937 8.626-8.238 11.062.137-2.75.98-7.514 4.724-12.254l-.935-.698C9.46 5.935 8.548 10.855 8.4 13.782 7.342 11.056 6.398 6.206 9.84 1.038L8.851.415C5.05 6.122 6.217 11.494 7.398 14.419 5.338 12.414 2.697 8.188 5.22.76L4.102.401z" mask="url(#c)"/>
        </g>
    </g>
</svg>
