<svg xmlns="http://www.w3.org/2000/svg" xmlns:xlink="http://www.w3.org/1999/xlink" width="100%" height="100%" viewBox="0 0 138 75">
    <defs>
        <path id="a" d="M6.64 16.843C4.104 19.692 1.8 23.09.33 26.979l1.178.169c1.383-3.56 3.499-6.692 5.834-9.349.95 1.836 3.597 5.836 8.938 6.602 1.364.195 2.907.179 4.64-.14l-.211-1.147c-6.62 1.216-10.104-2.282-11.66-4.655 1.702 1.034 4.346 2.358 7.287 2.78 1.887.27 3.892.169 5.841-.62l-.438-1.081c-4.325 1.75-9.135-.366-11.815-1.933 3.14.318 8.592.475 13.256-1.41l-.438-1.082c-4.275 1.729-9.389 1.626-12.453 1.344 2.74-.871 7.223-2.489 11.788-4.958l-.557-1.026c-4.71 2.548-9.319 4.168-11.954 4.988 5.32-5.194 10.861-8.038 10.957-8.086L20 6.333c-.095.047-5.325 2.726-10.578 7.66 1.358-2.475 3.767-6.258 7.57-10.272l-.847-.803c-4.326 4.57-6.868 8.78-8.156 11.26.136-2.799.971-7.649 4.677-12.473l-.925-.71C7.865 6.04 6.963 11.049 6.815 14.027 5.768 11.253 4.834 6.316 8.241 1.057L7.262.422C3.5 6.232 4.655 11.7 5.824 14.676 3.785 12.636 1.17 8.334 3.668.775L2.56.409c-3.395 10.273 2.237 15.16 4.08 16.434"/>
        <linearGradient id="b" x1="-7.218%" x2="81.243%" y1="93.166%" y2="17.998%">
            <stop offset="0%" stop-color="#FFF"/>
            <stop offset="100%" stop-color="#54FFF6"/>
        </linearGradient>
    </defs>
    <g fill="none" fill-rule="evenodd">
        <g transform="translate(98.25 .341)">
            <mask id="c" fill="#fff">
                <use xlink:href="#a"/>
            </mask>
            <path fill="url(#b)" d="M6.64 16.843C4.104 19.692 1.8 23.09.33 26.979l1.178.169c1.383-3.56 3.499-6.692 5.834-9.349.95 1.836 3.597 5.836 8.938 6.602 1.364.195 2.907.179 4.64-.14l-.211-1.147c-6.62 1.216-10.104-2.282-11.66-4.655 1.702 1.034 4.346 2.358 7.287 2.78 1.887.27 3.892.169 5.841-.62l-.438-1.081c-4.325 1.75-9.135-.366-11.815-1.933 3.14.318 8.592.475 13.256-1.41l-.438-1.082c-4.275 1.729-9.389 1.626-12.453 1.344 2.74-.871 7.223-2.489 11.788-4.958l-.557-1.026c-4.71 2.548-9.319 4.168-11.954 4.988 5.32-5.194 10.861-8.038 10.957-8.086L20 6.333c-.095.047-5.325 2.726-10.578 7.66 1.358-2.475 3.767-6.258 7.57-10.272l-.847-.803c-4.326 4.57-6.868 8.78-8.156 11.26.136-2.799.971-7.649 4.677-12.473l-.925-.71C7.865 6.04 6.963 11.049 6.815 14.027 5.768 11.253 4.834 6.316 8.241 1.057L7.262.422C3.5 6.232 4.655 11.7 5.824 14.676 3.785 12.636 1.17 8.334 3.668.775L2.56.409c-3.395 10.273 2.237 15.16 4.08 16.434" mask="url(#c)"/>
        </g>
        <g fill="#FFF">
            <path d="M6.059 26.45v18.677l3.883.306c1.077 0 2.061-.232 2.952-.696a6.687 6.687 0 0 0 2.283-1.963c.632-.845 1.123-1.86 1.476-3.045.352-1.185.528-2.51.528-3.974 0-1.297-.171-2.514-.512-3.648-.342-1.133-.85-2.117-1.523-2.952a7.177 7.177 0 0 0-2.532-1.979c-1.014-.484-2.196-.727-3.541-.727H6.059zM4.35 25.082h6.182c1.574 0 2.998.221 4.272.664 1.274.444 2.35 1.1 3.231 1.965.88.867 1.559 1.938 2.036 3.217.475 1.279.714 2.744.714 4.394 0 3.361-.875 6.012-2.625 7.95-1.75 1.94-4.397 3.114-7.938 3.527H.155L0 45.759l2.796-.418V26.808L0 26.123l.155-1.04H4.35zM31.038 39.374l-4.505 1.864a1.903 1.903 0 0 0-.481.793c-.094.3-.14.616-.14.947 0 .788.186 1.341.559 1.662.373.322.787.482 1.243.482.435 0 .828-.098 1.18-.295.352-.197.632-.368.839-.513l1.305-.9v-4.04zm-1.958-7.611c.974 0 1.776.072 2.409.217.631.145 1.134.404 1.506.776.373.373.632.876.777 1.507.144.632.218 1.445.218 2.44v6.088c0 .663.046 1.156.14 1.476.093.322.221.606.388.855h1.553l.124 1.087-4.007.777-.963-2.392-3.698 2.703c-1.347 0-2.444-.353-3.293-1.056-.85-.705-1.274-1.679-1.274-2.922 0-.558.093-1.056.28-1.49a6.86 6.86 0 0 1 .807-1.367l6.99-2.33v-1.554c0-.455-.015-.87-.046-1.243a2.7 2.7 0 0 0-.233-.947 1.291 1.291 0 0 0-.559-.59c-.249-.135-.58-.203-.994-.203-.415 0-.854.058-1.321.17a8.647 8.647 0 0 0-1.227.39l-.528 2.454h-2.672v-2.36l5.623-2.486zM41.352 46.8H37.78l-.155-1.041 2.175-.31V34.094l-2.175.2-.155-1.113 3.728-.985h1.336l.156 2.564 4.597-3.03c.995 0 1.797.088 2.409.265.61.176 1.077.467 1.398.871.32.404.538.928.652 1.57.113.644.171 1.431.171 2.364v8.647l2.361.31-.155 1.042h-6.556l-.155-1.041 1.553-.31V36.55c0-.808-.176-1.4-.528-1.773-.352-.373-.86-.56-1.522-.56-.539 0-1.077.145-1.616.439a22.02 22.02 0 0 0-1.615.97l-.933.626v9.196l1.71.31-.156 1.042h-2.952zM61.454 44.811c.414 0 .88-.103 1.398-.31.518-.207 1.046-.53 1.585-.963l.931-.747V34.56a3.59 3.59 0 0 0-1.304-.917c-.518-.217-1.108-.326-1.77-.326-1.244 0-2.233.528-2.968 1.585-.735 1.056-1.104 2.505-1.104 4.349 0 1.74.306 3.102.918 4.085.61.984 1.382 1.476 2.314 1.476zm6.866-2.02c0 .622.047 1.098.14 1.43.093.331.223.611.388.84h1.74l.125 1.148-4.164.777-.962-2.392-4.008 2.703c-.995 0-1.89-.177-2.688-.528a5.809 5.809 0 0 1-2.035-1.476c-.559-.632-.99-1.393-1.29-2.283-.3-.89-.45-1.875-.45-2.952 0-1.263.181-2.377.544-3.34a6.959 6.959 0 0 1 1.553-2.47 7.543 7.543 0 0 1 2.408-1.631c.932-.404 1.967-.689 3.107-.854.144 0 .331.026.56.078.227.05.465.118.714.2.248.084.491.177.73.28l.636.28v-5.84h-2.174l-.156-1.042 3.73-.95 1.552-.122v18.144zM81.213 37.51c0-.623-.037-1.193-.109-1.71-.072-.516-.213-.957-.419-1.322a2.187 2.187 0 0 0-.87-.855c-.372-.205-.86-.307-1.46-.307-.953 0-1.72.384-2.299 1.153-.58.77-.932 1.783-1.057 3.041h6.214zm-6.244 1.398c0 .891.114 1.704.342 2.44a5.5 5.5 0 0 0 1.01 1.91c.444.539.988.958 1.63 1.258.642.3 1.368.45 2.175.45.621 0 1.28-.128 1.974-.388.693-.259 1.33-.564 1.91-.916l.496 1.18c-.745.518-1.589.984-2.53 1.399-.944.414-1.912.766-2.906 1.056a7.528 7.528 0 0 1-2.703-.497 6.647 6.647 0 0 1-2.284-1.445c-.652-.631-1.175-1.419-1.57-2.36-.392-.944-.59-2.025-.59-3.248 0-1.139.167-2.154.498-3.045a6.839 6.839 0 0 1 1.414-2.314 7.756 7.756 0 0 1 2.221-1.631c.87-.435 1.833-.766 2.89-.995 1.014 0 1.874.15 2.578.45.705.302 1.274.716 1.709 1.244.434.528.746 1.149.933 1.864a9.03 9.03 0 0 1 .28 2.284v1.304h-9.477zM90.068 46.769h-3.574l-.155-1.041 2.175-.31V26.744h-2.175l-.155-1.072 3.728-.95 1.553-.122v20.816l2.33.31-.155 1.042zM97.524 25.3h2.237l.87.149.156 1.668-.342 1.491-2.207.187-.838-.187-.186-1.739.31-1.569zm1.553 21.5h-3.572l-.155-1.041 2.174-.31v-11.34l-2.174.185-.155-1.087 3.727-.963 1.554-.124v13.328l2.33.31-.156 1.042h-3.573zM107.621 39.219c0 .89.109 1.73.327 2.516.217.788.528 1.482.932 2.082.404.6.89 1.077 1.46 1.43.57.351 1.196.528 1.88.528.62 0 1.165-.15 1.63-.451.467-.3.86-.715 1.18-1.243.322-.528.56-1.15.716-1.864.155-.714.233-1.496.233-2.346 0-.994-.115-1.895-.342-2.703-.228-.807-.544-1.496-.948-2.065a4.531 4.531 0 0 0-1.444-1.337 3.677 3.677 0 0 0-1.864-.481c-.622 0-1.17.15-1.648.45-.476.3-.869.715-1.18 1.243-.31.528-.543 1.155-.698 1.88a11.276 11.276 0 0 0-.234 2.36m4.536-7.456c1.036 0 1.978.192 2.827.576.849.383 1.58.906 2.19 1.569a6.933 6.933 0 0 1 1.414 2.36c.33.912.498 1.896.498 2.952 0 2.32-.668 4.147-2.005 5.484-1.335 1.336-3.215 2.2-5.638 2.594-1.036 0-1.979-.187-2.828-.56a6.392 6.392 0 0 1-2.19-1.568 7.143 7.143 0 0 1-1.413-2.361c-.332-.902-.498-1.88-.498-2.937 0-2.34.668-4.173 2.004-5.499 1.337-1.325 3.215-2.195 5.64-2.61M124.43 46.8h-3.574l-.155-1.041 2.175-.31V34.094l-2.175.2-.156-1.113 3.73-.985h1.334l.156 2.564 4.598-3.03c.994 0 1.797.088 2.408.265.611.176 1.077.467 1.398.871.321.404.539.928.653 1.57.113.644.17 1.431.17 2.364v8.647l2.362.31-.156 1.042h-6.555l-.156-1.041 1.554-.31V36.55c0-.808-.176-1.4-.528-1.773-.352-.373-.86-.56-1.523-.56-.538 0-1.077.145-1.615.439-.539.291-1.077.615-1.617.97l-.931.626v9.196l1.71.31-.156 1.042h-2.951zM3.573 70.925c.476.58 1.108 1.052 1.895 1.414a5.875 5.875 0 0 0 2.486.544c1.346 0 2.386-.373 3.122-1.12.735-.744 1.103-1.687 1.103-2.826 0-1.057-.306-1.906-.916-2.548-.611-.642-1.383-1.17-2.315-1.584l-3.76-1.647a14.375 14.375 0 0 1-1.583-.823 5.404 5.404 0 0 1-1.29-1.072 4.944 4.944 0 0 1-.87-1.43c-.217-.537-.327-1.15-.327-1.832 0-.85.187-1.61.56-2.283a5.98 5.98 0 0 1 1.537-1.788c.654-.517 1.435-.957 2.346-1.32a18.344 18.344 0 0 1 2.983-.885c.995 0 1.994.155 2.998.466 1.005.31 1.9.756 2.688 1.336v4.195h-1.553l-.901-2.828a6.34 6.34 0 0 0-1.445-1.072c-.55-.3-1.29-.45-2.222-.45-1.243 0-2.206.305-2.889.916-.684.611-1.025 1.445-1.025 2.501 0 .87.268 1.58.807 2.128.54.55 1.243 1.01 2.113 1.383l3.573 1.553c.621.27 1.206.57 1.755.901.55.332 1.036.73 1.46 1.196.424.467.757 1 .995 1.6.238.602.357 1.295.357 2.082 0 .725-.135 1.44-.404 2.144-.27.704-.71 1.362-1.32 1.973-.611.611-1.42 1.16-2.424 1.646-1.004.487-2.232.886-3.681 1.196-1.43 0-2.651-.186-3.666-.558a9.77 9.77 0 0 1-2.765-1.554L.31 68.285h2.175l1.087 2.64zM27.06 64.711c0-.623-.036-1.193-.108-1.709-.073-.517-.213-.958-.42-1.323a2.184 2.184 0 0 0-.87-.855c-.372-.205-.86-.307-1.46-.307-.953 0-1.72.384-2.299 1.153-.58.77-.932 1.783-1.056 3.041h6.213zm-6.245 1.398c0 .891.114 1.704.342 2.44a5.512 5.512 0 0 0 1.01 1.91c.445.539.989.958 1.63 1.258.643.3 1.368.45 2.176.45.622 0 1.279-.128 1.973-.388.694-.258 1.33-.564 1.911-.916l.497 1.18c-.746.519-1.59.984-2.532 1.4-.943.413-1.911.765-2.905 1.055a7.528 7.528 0 0 1-2.703-.497 6.633 6.633 0 0 1-2.284-1.445c-.652-.631-1.176-1.419-1.569-2.36-.394-.943-.59-2.025-.59-3.247 0-1.14.165-2.155.497-3.045.33-.89.803-1.662 1.413-2.315a7.76 7.76 0 0 1 2.222-1.631c.87-.434 1.833-.766 2.89-.995 1.014 0 1.874.151 2.578.451.704.3 1.274.715 1.708 1.243.435.528.747 1.149.933 1.864.186.715.28 1.476.28 2.284v1.304h-9.477zM41.818 64.711c0-.623-.036-1.193-.11-1.709-.072-.517-.211-.958-.418-1.323a2.182 2.182 0 0 0-.87-.855c-.373-.205-.86-.307-1.46-.307-.953 0-1.72.384-2.3 1.153-.58.77-.932 1.783-1.056 3.041h6.214zm-6.245 1.398c0 .891.114 1.704.342 2.44a5.512 5.512 0 0 0 1.01 1.91c.445.539.989.958 1.63 1.258.643.3 1.368.45 2.176.45.62 0 1.279-.128 1.972-.388.694-.258 1.33-.564 1.911-.916l.498 1.18c-.747.519-1.59.984-2.532 1.4-.944.413-1.911.765-2.905 1.055a7.525 7.525 0 0 1-2.703-.497 6.633 6.633 0 0 1-2.284-1.445c-.652-.631-1.176-1.419-1.569-2.36-.394-.943-.59-2.025-.59-3.247 0-1.14.165-2.155.496-3.045a6.827 6.827 0 0 1 1.414-2.315 7.756 7.756 0 0 1 2.222-1.631c.87-.434 1.833-.766 2.89-.995 1.013 0 1.874.151 2.578.451.704.3 1.273.715 1.708 1.243.435.528.747 1.149.933 1.864.186.715.28 1.476.28 2.284v1.304h-9.477zM53.624 72.013c.414 0 .88-.104 1.398-.311.517-.207 1.045-.528 1.585-.963l.932-.746V61.76a3.591 3.591 0 0 0-1.305-.917c-.518-.217-1.109-.326-1.77-.326-1.244 0-2.233.528-2.969 1.585-.735 1.056-1.102 2.506-1.102 4.349 0 1.74.305 3.103.916 4.086.612.984 1.383 1.476 2.315 1.476zm6.866-2.02c0 .621.047 1.098.14 1.43.093.331.222.61.388.838h1.74l.125 1.15-4.164.776-.963-2.392-4.008 2.703c-.994 0-1.89-.176-2.687-.528a5.807 5.807 0 0 1-2.035-1.476c-.56-.632-.99-1.392-1.29-2.283-.3-.89-.45-1.875-.45-2.952 0-1.263.181-2.376.543-3.34a6.963 6.963 0 0 1 1.554-2.47 7.543 7.543 0 0 1 2.408-1.631c.932-.404 1.968-.689 3.107-.854.145 0 .33.026.559.078.228.051.466.119.715.201.248.083.49.177.73.28l.637.28v-5.841h-2.175l-.156-1.041 3.729-.95 1.553-.122v18.144z"/>
        </g>
    </g>
</svg>
