<svg xmlns="http://www.w3.org/2000/svg" xmlns:xlink="http://www.w3.org/1999/xlink" width="138" height="75" viewBox="0 0 138 75">
    <defs>
        <path id="a" d="M6.64 16.84A32.93 32.93 0 0 0 .33 26.98l1.18.17c1.38-3.56 3.5-6.7 5.83-9.35.95 1.83 3.6 5.83 8.94 6.6 1.36.2 2.9.18 4.64-.14l-.21-1.15c-6.62 1.22-10.1-2.28-11.66-4.65a20.04 20.04 0 0 0 7.29 2.78c1.88.27 3.89.17 5.84-.62l-.44-1.08c-4.33 1.75-9.14-.37-11.82-1.93 3.14.31 8.6.47 13.26-1.41l-.44-1.09c-4.27 1.73-9.39 1.63-12.45 1.35a70.07 70.07 0 0 0 11.79-4.96l-.56-1.03a68.87 68.87 0 0 1-11.95 5 50.27 50.27 0 0 1 10.95-8.1L20 6.34c-.1.05-5.33 2.73-10.58 7.66A50.36 50.36 0 0 1 17 3.72l-.84-.8a50.62 50.62 0 0 0-8.16 11.26c.13-2.8.97-7.65 4.68-12.47L11.74 1a23.3 23.3 0 0 0-4.92 13.03A14.08 14.08 0 0 1 8.23 1.06L7.26.42a15.27 15.27 0 0 0-1.44 14.26C3.78 12.64 1.17 8.33 3.67.78L2.56.4C-.84 10.68 4.8 15.57 6.64 16.84"/>
        <linearGradient id="b" x1="-7.22%" x2="81.24%" y1="93.17%" y2="18%">
            <stop offset="0%" stop-color="#FFF"/>
            <stop offset="100%" stop-color="#54FFF6"/>
        </linearGradient>
    </defs>
    <g fill="none" fill-rule="evenodd">
        <g transform="translate(98.25 .34)">
            <mask id="c" fill="#fff">
                <use xlink:href="#a"/>
            </mask>
            <path fill="url(#b)" d="M6.64 16.84A32.93 32.93 0 0 0 .33 26.98l1.18.17c1.38-3.56 3.5-6.7 5.83-9.35.95 1.83 3.6 5.83 8.94 6.6 1.36.2 2.9.18 4.64-.14l-.21-1.15c-6.62 1.22-10.1-2.28-11.66-4.65a20.04 20.04 0 0 0 7.29 2.78c1.88.27 3.89.17 5.84-.62l-.44-1.08c-4.33 1.75-9.14-.37-11.82-1.93 3.14.31 8.6.47 13.26-1.41l-.44-1.09c-4.27 1.73-9.39 1.63-12.45 1.35a70.07 70.07 0 0 0 11.79-4.96l-.56-1.03a68.87 68.87 0 0 1-11.95 5 50.27 50.27 0 0 1 10.95-8.1L20 6.34c-.1.05-5.33 2.73-10.58 7.66A50.36 50.36 0 0 1 17 3.72l-.84-.8a50.62 50.62 0 0 0-8.16 11.26c.13-2.8.97-7.65 4.68-12.47L11.74 1a23.3 23.3 0 0 0-4.92 13.03A14.08 14.08 0 0 1 8.23 1.06L7.26.42a15.27 15.27 0 0 0-1.44 14.26C3.78 12.64 1.17 8.33 3.67.78L2.56.4C-.84 10.68 4.8 15.57 6.64 16.84" mask="url(#c)"/>
        </g>
        <path fill="#FFF" d="M6.06 26.45v18.68l3.88.3a6.3 6.3 0 0 0 2.95-.7 6.69 6.69 0 0 0 2.29-1.96 9.62 9.62 0 0 0 1.47-3.04c.36-1.19.53-2.51.53-3.98 0-1.3-.17-2.5-.51-3.64a8.61 8.61 0 0 0-1.52-2.96 7.18 7.18 0 0 0-2.54-1.97 8.14 8.14 0 0 0-3.54-.73H6.06zm-1.71-1.37h6.18c1.58 0 3 .22 4.27.67a8.55 8.55 0 0 1 3.23 1.96 8.71 8.71 0 0 1 2.04 3.22c.48 1.28.72 2.74.72 4.4 0 3.35-.88 6-2.63 7.94-1.75 1.94-4.4 3.12-7.94 3.53H.15L0 45.76l2.8-.42V26.81L0 26.12l.15-1.04h4.2zm26.69 14.3l-4.5 1.86a1.9 1.9 0 0 0-.49.8c-.1.3-.14.6-.14.94 0 .79.19 1.34.56 1.66.37.32.79.48 1.24.48.44 0 .83-.1 1.18-.3.36-.19.64-.36.84-.5l1.3-.9v-4.05zm-1.96-7.62c.97 0 1.78.08 2.4.22.64.14 1.14.4 1.52.78.37.37.63.87.77 1.5.15.64.22 1.45.22 2.44v6.1c0 .65.05 1.15.14 1.47.1.32.22.6.39.85h1.55l.13 1.09-4.01.78-.96-2.4-3.7 2.7a5 5 0 0 1-3.3-1.05 3.59 3.59 0 0 1-1.27-2.92c0-.56.1-1.06.28-1.5a6.86 6.86 0 0 1 .8-1.36l7-2.33v-1.55c0-.46-.02-.87-.05-1.24a2.7 2.7 0 0 0-.23-.95 1.3 1.3 0 0 0-.56-.6c-.25-.13-.58-.2-1-.2-.41 0-.85.06-1.32.17a8.65 8.65 0 0 0-1.22.4l-.53 2.45h-2.67v-2.36l5.62-2.49zM41.35 46.8h-3.57l-.15-1.04 2.17-.31V34.09l-2.17.2-.16-1.1 3.73-1h1.33l.16 2.57 4.6-3.03c1 0 1.8.09 2.4.27.62.17 1.08.46 1.4.87.32.4.54.92.66 1.57.1.64.17 1.43.17 2.36v8.65l2.36.3-.16 1.05h-6.55l-.16-1.04 1.56-.31v-8.9c0-.8-.18-1.4-.53-1.77-.36-.38-.86-.56-1.53-.56-.53 0-1.07.14-1.61.44a22.02 22.02 0 0 0-1.62.97l-.93.62v9.2l1.71.3-.16 1.05h-2.95zm20.1-1.99c.42 0 .88-.1 1.4-.3a6.3 6.3 0 0 0 1.59-.97l.93-.75v-8.23a3.59 3.59 0 0 0-1.3-.92 4.55 4.55 0 0 0-1.78-.32c-1.24 0-2.23.52-2.96 1.58-.74 1.06-1.1 2.5-1.1 4.35 0 1.74.3 3.1.91 4.09.61.98 1.38 1.47 2.31 1.47zm6.87-2.02c0 .62.05 1.1.14 1.43.1.33.22.61.39.84h1.74l.12 1.15-4.16.78-.96-2.4-4.01 2.7c-1 0-1.9-.17-2.69-.52a5.8 5.8 0 0 1-2.03-1.48 6.57 6.57 0 0 1-1.3-2.28 9.2 9.2 0 0 1-.44-2.95c0-1.26.18-2.38.54-3.34a6.96 6.96 0 0 1 1.55-2.47 7.54 7.54 0 0 1 2.41-1.63c.93-.4 1.97-.7 3.1-.86.15 0 .34.03.57.08a7.36 7.36 0 0 1 1.44.48l.64.28v-5.84h-2.18l-.15-1.04 3.73-.95 1.55-.12v18.14zm12.9-5.28c0-.62-.04-1.2-.12-1.71a3.72 3.72 0 0 0-.41-1.32 2.19 2.19 0 0 0-.87-.86c-.38-.2-.86-.3-1.46-.3-.96 0-1.72.38-2.3 1.15A5.94 5.94 0 0 0 75 37.5h6.21zm-6.25 1.4c0 .89.11 1.7.34 2.44a5.5 5.5 0 0 0 1.01 1.9c.45.55.99.97 1.63 1.27.64.3 1.37.45 2.18.45.62 0 1.28-.13 1.97-.4.7-.25 1.33-.56 1.91-.9l.5 1.17c-.75.52-1.6.99-2.53 1.4-.95.42-1.92.77-2.91 1.06a7.53 7.53 0 0 1-2.7-.5 6.65 6.65 0 0 1-2.29-1.44A7.01 7.01 0 0 1 72.51 43a8.4 8.4 0 0 1-.59-3.25c0-1.14.17-2.16.5-3.05a6.84 6.84 0 0 1 1.41-2.31 7.76 7.76 0 0 1 2.23-1.63c.87-.44 1.83-.77 2.89-1 1.01 0 1.87.15 2.57.45a4.42 4.42 0 0 1 2.65 3.11 9.03 9.03 0 0 1 .28 2.28v1.3h-9.48zm15.1 7.86h-3.58l-.15-1.04 2.17-.31V26.74h-2.17l-.16-1.07 3.73-.95 1.55-.12v20.82l2.33.3-.15 1.05zm7.45-21.47h2.24l.87.15.16 1.67-.35 1.49-2.2.19-.84-.2-.19-1.73.31-1.57zm1.56 21.5H95.5l-.15-1.04 2.17-.31V34.1l-2.17.18-.15-1.08 3.72-.97 1.56-.12v13.33l2.33.3-.16 1.05h-3.57zm8.54-7.58c0 .89.11 1.73.33 2.52.21.78.53 1.48.93 2.08.4.6.89 1.07 1.46 1.43.57.35 1.2.52 1.88.52.62 0 1.16-.15 1.63-.45.47-.3.86-.71 1.18-1.24.32-.53.56-1.15.72-1.86a11.06 11.06 0 0 0-.11-5.05c-.23-.8-.55-1.5-.95-2.07a4.53 4.53 0 0 0-1.45-1.33 3.68 3.68 0 0 0-1.86-.49c-.62 0-1.17.15-1.65.45-.47.3-.87.72-1.18 1.25a6.3 6.3 0 0 0-.7 1.88 11.28 11.28 0 0 0-.23 2.36m4.54-7.46a6.78 6.78 0 0 1 5.01 2.15 6.93 6.93 0 0 1 1.42 2.36c.33.9.5 1.9.5 2.95 0 2.32-.67 4.15-2 5.48-1.34 1.34-3.22 2.2-5.65 2.6a6.96 6.96 0 0 1-2.82-.56 6.4 6.4 0 0 1-2.2-1.57 7.14 7.14 0 0 1-1.4-2.36c-.34-.9-.5-1.88-.5-2.94 0-2.34.66-4.17 2-5.5 1.34-1.32 3.21-2.2 5.64-2.6m12.27 15.03h-3.57l-.16-1.04 2.18-.31V34.09l-2.18.2-.15-1.1 3.73-1h1.33l.16 2.57 4.6-3.03c.99 0 1.79.09 2.4.27.61.17 1.08.46 1.4.87.32.4.54.92.65 1.57.12.64.17 1.43.17 2.36v8.65l2.36.3-.15 1.05h-6.56l-.15-1.04 1.55-.31v-8.9c0-.8-.18-1.4-.53-1.77-.35-.38-.86-.56-1.52-.56-.54 0-1.08.14-1.62.44-.53.29-1.07.61-1.61.97l-.93.62v9.2l1.7.3-.15 1.05h-2.95zM3.57 70.93c.48.57 1.11 1.05 1.9 1.4a5.88 5.88 0 0 0 2.48.55c1.35 0 2.39-.37 3.13-1.12a3.86 3.86 0 0 0 1.1-2.82c0-1.06-.3-1.9-.92-2.55a7.16 7.16 0 0 0-2.31-1.59l-3.76-1.64a14.38 14.38 0 0 1-1.59-.83 5.4 5.4 0 0 1-1.29-1.07 4.94 4.94 0 0 1-.87-1.43A4.86 4.86 0 0 1 1.12 58c0-.85.18-1.6.56-2.28a5.98 5.98 0 0 1 1.53-1.79 9.31 9.31 0 0 1 2.35-1.32 18.34 18.34 0 0 1 2.98-.89 10.09 10.09 0 0 1 5.69 1.8v4.2h-1.55l-.9-2.83a6.34 6.34 0 0 0-1.45-1.07 4.65 4.65 0 0 0-2.22-.45c-1.24 0-2.2.3-2.89.92a3.18 3.18 0 0 0-1.03 2.5c0 .87.27 1.58.81 2.13a6.5 6.5 0 0 0 2.11 1.38l3.58 1.55c.62.27 1.2.57 1.75.9a6.5 6.5 0 0 1 1.46 1.2 5.23 5.23 0 0 1 1.35 3.68 5.67 5.67 0 0 1-1.72 4.12 8.85 8.85 0 0 1-2.42 1.64c-1 .5-2.24.9-3.68 1.2-1.43 0-2.66-.19-3.67-.56a9.77 9.77 0 0 1-2.77-1.55l-.68-4.2h2.17l1.1 2.64zm23.49-6.22c0-.62-.04-1.2-.1-1.7a3.72 3.72 0 0 0-.43-1.33 2.18 2.18 0 0 0-.87-.86c-.37-.2-.86-.3-1.46-.3-.95 0-1.72.38-2.3 1.15a5.93 5.93 0 0 0-1.05 3.04h6.21zm-6.25 1.4c0 .89.12 1.7.35 2.44a5.51 5.51 0 0 0 1 1.9c.45.55 1 .97 1.64 1.27.64.3 1.36.45 2.17.45.63 0 1.28-.13 1.98-.4.69-.25 1.33-.56 1.9-.9l.5 1.17c-.74.52-1.59.99-2.53 1.4-.94.42-1.9.77-2.9 1.06a7.53 7.53 0 0 1-2.7-.5 6.63 6.63 0 0 1-2.29-1.44 6.98 6.98 0 0 1-1.57-2.36 8.36 8.36 0 0 1-.59-3.25c0-1.14.17-2.16.5-3.05.33-.89.8-1.66 1.41-2.31a7.76 7.76 0 0 1 2.22-1.63c.87-.44 1.84-.77 2.9-1 1 0 1.87.15 2.57.45a4.4 4.4 0 0 1 2.64 3.11c.19.72.28 1.48.28 2.29v1.3h-9.47zm21-1.4c0-.62-.03-1.2-.1-1.7a3.7 3.7 0 0 0-.42-1.33 2.18 2.18 0 0 0-.87-.86c-.37-.2-.86-.3-1.46-.3-.95 0-1.72.38-2.3 1.15a5.93 5.93 0 0 0-1.06 3.04h6.22zm-6.24 1.4c0 .89.12 1.7.35 2.44a5.51 5.51 0 0 0 1 1.9c.45.55 1 .97 1.63 1.27.65.3 1.37.45 2.18.45.62 0 1.28-.13 1.97-.4.7-.25 1.33-.56 1.91-.9l.5 1.17c-.74.52-1.59.99-2.53 1.4-.94.42-1.91.77-2.9 1.06a7.53 7.53 0 0 1-2.7-.5 6.63 6.63 0 0 1-2.3-1.44 6.98 6.98 0 0 1-1.56-2.36 8.36 8.36 0 0 1-.6-3.25c0-1.14.17-2.16.5-3.05a6.83 6.83 0 0 1 1.42-2.31 7.76 7.76 0 0 1 2.22-1.63c.87-.44 1.83-.77 2.9-1 1 0 1.86.15 2.57.45a4.4 4.4 0 0 1 2.64 3.11c.19.72.28 1.48.28 2.29v1.3h-9.48zM53.62 72c.42 0 .88-.1 1.4-.3.52-.21 1.05-.54 1.59-.97l.93-.75v-8.23a3.6 3.6 0 0 0-1.3-.92 4.55 4.55 0 0 0-1.78-.32c-1.24 0-2.23.52-2.96 1.58-.74 1.06-1.1 2.5-1.1 4.35 0 1.74.3 3.1.9 4.09.62.98 1.4 1.47 2.32 1.47zM60.5 70c0 .62.05 1.1.14 1.43.1.33.22.61.39.84h1.74l.12 1.15-4.16.78-.96-2.4-4.01 2.7c-1 0-1.9-.17-2.69-.52a5.8 5.8 0 0 1-2.03-1.48 6.54 6.54 0 0 1-1.3-2.28 9.2 9.2 0 0 1-.44-2.95c0-1.26.18-2.38.54-3.34a6.96 6.96 0 0 1 1.55-2.47 7.54 7.54 0 0 1 2.41-1.63c.93-.4 1.97-.7 3.1-.86.15 0 .34.03.57.08a7.6 7.6 0 0 1 1.44.48l.64.28v-5.84h-2.18l-.15-1.04 3.73-.95 1.55-.12v18.14z"/>
    </g>
</svg>