<svg width="100%" height="100%" viewBox="0 0 137 31">
    <g>
        <path d="M12.29 16.98c.24-.05.4-.3.36-.55-.06-.26-.3-.43-.56-.37a.45.45 0 0 0-.36.54c.05.26.3.44.56.38m9.55-2c.24-.05.4-.3.36-.54-.06-.26-.31-.44-.56-.37a.45.45 0 0 0-.37.54c.05.25.3.43.57.38m-8.4 4.1c.29-.24.32-.64.11-.92a.68.68 0 0 0-.92-.11.64.64 0 0 0-.1.9c.21.29.62.36.9.13m7.8-6.12c.3-.24.33-.65.13-.93a.68.68 0 0 0-.93-.1.64.64 0 0 0-.1.9c.22.29.63.36.9.13M16 20.57a.87.87 0 0 0-.5-1.13c-.48-.18-.97.05-1.16.53-.17.44.07.95.53 1.13a.9.9 0 0 0 1.13-.53m3.54-9.46a.87.87 0 0 0-.5-1.13c-.47-.18-.96.05-1.16.52-.17.45.07.96.53 1.13a.9.9 0 0 0 1.13-.52m1.59 5.52c-.08.36.1.7.45.8.35.09.7-.13.8-.46a.63.63 0 0 0-.47-.78c-.34-.1-.69.1-.78.44m-1.3 1.8a.98.98 0 0 0 0 1.36c.38.36.98.36 1.33 0 .4-.37.4-1 .02-1.36a.96.96 0 0 0-1.36 0m-2 1.04c-.52.13-.87.66-.75 1.18a1 1 0 0 0 1.2.77 1 1 0 0 0 .76-1.19 1.02 1.02 0 0 0-1.21-.76m-6.3-5.4c-.1.35.1.69.46.8.33.08.69-.12.77-.46a.64.64 0 0 0-1.23-.35m1.2-2.8a.96.96 0 0 0-.01 1.35c.37.37.97.38 1.36 0a.96.96 0 0 0-1.36-1.35m2.92-1.63a1 1 0 0 0-.78 1.18c.14.53.66.88 1.2.75a1 1 0 0 0 .76-1.18 1 1 0 0 0-1.18-.75m6.38 11.98c.29.28.71.29.99 0a.65.65 0 0 0 0-.96.69.69 0 0 0-.98-.02.7.7 0 0 0-.01.98M10.8 10.35c.28.28.73.29 1 0a.7.7 0 0 0-1-.98.71.71 0 0 0 0 .98m13.16 8.84a.7.7 0 0 0 .92-.37.7.7 0 0 0-.37-.91.67.67 0 0 0-.9.37c-.16.36.02.77.35.91m1-2.72c.46 0 .83-.37.83-.83a.83.83 0 0 0-.81-.84.84.84 0 0 0-.86.81c0 .46.38.84.83.86m-.01-2.95c.55-.21.82-.83.6-1.4a1.05 1.05 0 0 0-1.37-.6c-.57.22-.85.83-.63 1.38.22.57.84.83 1.4.62M9.3 13.07c.36.14.77-.02.92-.38a.71.71 0 0 0-.38-.91.7.7 0 0 0-.9.38c-.15.35.01.76.36.91m-.47 3.12c.45 0 .83-.37.84-.83a.84.84 0 0 0-.8-.84.83.83 0 0 0-.86.81c-.01.47.36.85.82.86m.82 3.27c.55-.2.84-.82.61-1.4-.2-.55-.83-.82-1.38-.6a1.07 1.07 0 1 0 .77 2m10 2.7a.74.74 0 0 0-.41.97c.16.38.6.57.98.42.39-.16.58-.6.4-1a.73.73 0 0 0-.97-.4m-2.77.4c-.55-.02-1 .44-1.01 1 0 .58.46 1.01 1 1.03a1.04 1.04 0 0 0 1.03-1.02c.01-.55-.45-1-1.02-1.02m-2.6-.52c-.6-.25-1.26.05-1.5.65-.24.58.06 1.26.64 1.49.58.23 1.26-.03 1.49-.63.24-.6-.04-1.26-.63-1.5m-2.29-1.66c-.49-.5-1.3-.5-1.8-.01-.5.5-.51 1.3-.02 1.81.51.5 1.32.5 1.82.02.5-.5.5-1.32 0-1.82M13.6 7.44a.75.75 0 0 0-.41.98c.17.39.6.57 1 .42a.76.76 0 0 0 .4-1 .74.74 0 0 0-.99-.4m3.35-1.03c-.56 0-1.03.45-1.03 1.02.01.53.45 1 1.02 1a1 1 0 0 0 1-1.01c.02-.54-.44-1-1-1.01m3.48.41a1.17 1.17 0 0 0-1.5.63c-.24.58.05 1.28.63 1.51a1.15 1.15 0 0 0 .87-2.14m3.22 2c-.51-.5-1.32-.52-1.82 0-.5.48-.5 1.29 0 1.79s1.3.5 1.81.01c.5-.51.52-1.3 0-1.8m.14 15.64c.22.26.61.3.86.07a.6.6 0 0 0 .07-.85.6.6 0 1 0-.93.78m1.85-1.66a.7.7 0 0 0 .99-.15.7.7 0 1 0-1.13-.84.7.7 0 0 0 .14.99m1.61-2.28a.82.82 0 0 0 1.08-.46.82.82 0 0 0-.46-1.08.83.83 0 0 0-1.08.46c-.16.43.04.91.46 1.08m1.1-2.96a.88.88 0 1 0 .19-1.74.88.88 0 1 0-.19 1.74m.22-3.08c.58-.1.98-.66.86-1.25a1.08 1.08 0 1 0-.86 1.25m-19.4-7.2c.23.26.6.3.86.08.26-.23.29-.61.08-.86a.62.62 0 0 0-.86-.07.61.61 0 0 0-.08.85M7.4 9.3a.7.7 0 0 0 .98-.15.69.69 0 0 0-.14-.97.7.7 0 0 0-.98.14.7.7 0 0 0 .14.98M6 12a.84.84 0 0 0 1.09-.47.83.83 0 0 0-.47-1.08.84.84 0 0 0-1.08.46c-.17.43.03.91.46 1.09m-.65 3.16a.9.9 0 0 0 .98-.78.9.9 0 0 0-.8-.97.88.88 0 0 0-.97.78c-.05.48.3.93.79.97m.34 3.45c.6-.1.98-.67.87-1.25a1.08 1.08 0 1 0-.87 1.25m16.4 6.35a.52.52 0 1 0 .5.91.52.52 0 0 0-.5-.91M20 25.7a.6.6 0 0 0-.4.75c.1.32.42.5.75.41.31-.1.5-.44.4-.76a.61.61 0 0 0-.75-.4m-2.4.39a.7.7 0 1 0 0 0m-2.68-.27a.91.91 0 1 0-.35 1.79.91.91 0 0 0 .35-1.8m-2.74-1a1.1 1.1 0 0 0-1.44.49 1.1 1.1 0 0 0 .47 1.45 1.1 1.1 0 0 0 1.45-.5c.27-.51.05-1.16-.48-1.43m-2.31-1.8a1.27 1.27 0 1 0-1.73 1.86 1.27 1.27 0 0 0 1.73-1.86m-1.9-2.68a1.37 1.37 0 1 0-2.4 1.31c.36.66 1.18.92 1.85.56.66-.37.9-1.2.55-1.87m3.3-15.25a.52.52 0 0 0 .5.91.53.53 0 0 0 .2-.7.52.52 0 0 0-.7-.2M13.5 4.1a.6.6 0 0 0 .35 1.16.6.6 0 0 0 .4-.76.6.6 0 0 0-.75-.4m2.65-.63a.7.7 0 0 0-.65.74c.03.39.36.68.75.66a.7.7 0 0 0-.1-1.4m3.13-.11a.91.91 0 0 0-.35 1.78c.5.1.97-.23 1.07-.71a.91.91 0 0 0-.72-1.07m3.26.79a1.08 1.08 0 0 0-.95 1.94c.53.25 1.18.05 1.44-.5.26-.54.04-1.17-.5-1.44m3.2 1.93a1.26 1.26 0 0 0-1.8.06c-.47.51-.45 1.31.06 1.79.51.47 1.32.45 1.8-.06.47-.51.45-1.32-.07-1.79m2.56 3.22a1.38 1.38 0 0 0-1.86-.55 1.37 1.37 0 1 0 1.86.55m-9.1 20.8a.8.8 0 1 0 0 0m3.17-.76a.92.92 0 1 0 1.68-.77.92.92 0 0 0-1.68.77m3.24-1.57c.4.48 1.12.55 1.6.15s.55-1.12.15-1.6-1.1-.56-1.6-.15c-.47.4-.55 1.11-.15 1.6m3.06-2.62c.59.41 1.41.26 1.82-.33a1.32 1.32 0 0 0-2.16-1.5c-.4.6-.27 1.42.34 1.83m2.23-3.4a1.55 1.55 0 1 0 .96-2.95 1.55 1.55 0 0 0-.96 2.95M13.12 1.18c.1.44.52.7.95.62a.79.79 0 1 0-.33-1.55c-.43.09-.7.5-.62.93M9.84 2.4c.21.47.77.67 1.22.45.47-.21.67-.76.45-1.22a.93.93 0 0 0-1.22-.45.93.93 0 0 0-.45 1.22M6.52 4.64c.4.49 1.11.56 1.6.15.48-.4.55-1.11.15-1.59a1.13 1.13 0 0 0-1.6-.15c-.48.4-.56 1.1-.15 1.6m-2.8 3.33c.6.42 1.42.26 1.84-.33.4-.6.25-1.42-.35-1.84a1.31 1.31 0 1 0-1.49 2.17m-1.7 4.19a1.55 1.55 0 1 0 .97-2.95 1.55 1.55 0 0 0-.97 2.95M16.93 29.6a.68.68 0 0 0 0 1.36c.38 0 .68-.3.68-.68 0-.37-.3-.68-.68-.68m-2.86-.43a.8.8 0 0 0-.94.61.8.8 0 1 0 1.55.33.8.8 0 0 0-.61-.94m-3.01-1.05a.9.9 0 0 0-1.22.44.92.92 0 0 0 1.67.77c.22-.45 0-1-.45-1.21m-2.94-1.95c-.49-.4-1.2-.33-1.6.15-.4.49-.34 1.2.15 1.6a1.13 1.13 0 1 0 1.45-1.74m-2.57-2.86a1.32 1.32 0 0 0-2.17 1.5c.42.6 1.24.74 1.84.33.6-.4.75-1.23.33-1.83m-1.58-3.54a1.55 1.55 0 0 0-2.94.98 1.55 1.55 0 0 0 2.95-.97m-.4-4.31a1.79 1.79 0 1 0-3.58 0 1.79 1.79 0 0 0 3.58 0M16.93 0c-.38 0-.68.3-.68.68a.68.68 0 1 0 .68-.68m3.2.25a.79.79 0 1 0-.33 1.55c.42.09.85-.18.94-.62a.79.79 0 0 0-.62-.93m3.45.93c-.46-.2-1-.01-1.22.45-.21.45-.01 1 .44 1.22a.91.91 0 0 0 1.23-.45c.21-.46.01-1-.45-1.22m3.62 1.87c-.49-.4-1.2-.33-1.6.15-.4.48-.33 1.2.15 1.6.49.4 1.2.33 1.6-.15.4-.5.33-1.2-.15-1.6m3.28 3.1a1.31 1.31 0 0 0-2.17 1.5 1.32 1.32 0 1 0 2.17-1.5m2.36 4.06a1.55 1.55 0 0 0-2.94.97c.27.8 1.15 1.25 1.95.98a1.55 1.55 0 0 0 1-1.95m1.02 5.27a1.8 1.8 0 1 0-3.59.01 1.8 1.8 0 0 0 3.6-.01"/>
        <path d="M100.7 18.76c0 1.7.06 1.75 1.6 1.75h5.13c.22 0 .4.18.4.4v1.3c0 .29-.1.4-.4.43-.65.1-1.97.28-4.38.28-3.38 0-5.16.03-5.16-4.16v-6.43c0-4.19 1.78-4.16 5.16-4.16 2.4 0 3.73.18 4.38.28.3.04.4.14.4.43v1.3c0 .22-.18.4-.4.4h-5.14c-1.53 0-1.6.05-1.6 1.75v1.86h6.5c.22 0 .4.19.4.4v1.47a.4.4 0 0 1-.4.41h-6.5v2.29zm30 4.17c-1.8 0-3.62-.3-4.6-.53-.2-.04-.38-.18-.38-.4v-1.47c0-.22.19-.38.39-.38h.04c.81.1 2.7.36 4.58.36 1.8 0 2.36-.65 2.36-1.82 0-1.53-3.63-2.37-5.4-3.1a3.64 3.64 0 0 1-2.4-3.55c0-2.24 1.8-3.87 5.57-3.87 1.94 0 3.7.37 4.4.54.2.04.36.18.36.38v1.5c0 .2-.14.37-.34.37h-.04c-1.34-.12-2.73-.37-4.5-.37-1.5 0-2.62.53-2.62 1.45 0 .66.76 1.28 1.66 1.64.9.35 2.08.81 3.43 1.36 1.7.69 2.82 1.7 2.82 3.65 0 2.05-1.28 4.24-5.34 4.24zm-10.8-10.17c0-1.52-1.17-2.17-3.2-2.17-.43 0-2.27.04-2.64.08v4.4c.33.02 2.3.06 2.63.06 2.1 0 3.22-.4 3.22-2.19v-.18zm3.05 10h-2.48c-.22 0-.3-.2-.4-.4l-2.92-4.93h-.46c-.52 0-2.16-.06-2.63-.08v5c0 .23-.16.41-.38.41h-2.03a.4.4 0 0 1-.4-.4V9.04c0-.4.23-.55.64-.6 1.06-.17 3.33-.27 4.8-.27 3.13 0 6.01 1.12 6.01 4.59v.18c0 2.15-1.07 3.33-2.74 3.98l3.2 5.44c.03.06.03.12.03.16 0 .14-.08.24-.24.24zM95.4 10.68h-4.04v11.68c0 .22-.19.4-.41.4h-2.01a.4.4 0 0 1-.4-.4V10.68h-4.06c-.22 0-.4-.14-.4-.36V8.6c0-.23.18-.39.4-.39H95.4c.22 0 .4.16.4.39v1.72c0 .22-.18.36-.4.36zM76 22.92c-3.27 0-6.08-1.42-6.08-5.75V8.62c0-.23.19-.39.4-.39h2.01c.23 0 .41.16.41.39v8.55c0 2.32 1.07 3.42 3.26 3.42 2.19 0 3.26-1.1 3.26-3.42V8.62c0-.23.18-.39.4-.39h2c.23 0 .42.16.42.39v8.55c0 4.33-2.82 5.75-6.08 5.75zm-16.25-4.16c0 1.7.06 1.75 1.6 1.75h5.13c.22 0 .4.18.4.4v1.3c0 .29-.1.4-.4.43-.65.1-1.97.28-4.38.28-3.37 0-5.15.03-5.15-4.16v-6.43c0-4.19 1.78-4.16 5.15-4.16 2.41 0 3.73.23 4.38.33.3.04.4.05.4.33v1.35c0 .22-.18.4-.4.4h-5.13c-1.54 0-1.6.05-1.6 1.75v1.74h6.49c.22 0 .4.18.4.4v1.6a.4.4 0 0 1-.4.4h-6.5v2.29zm-8.7-6c0-1.52-1.18-2.17-3.2-2.17-.43 0-2.28.04-2.64.08v4.4c.32.02 2.28.06 2.63.06 2.09 0 3.21-.4 3.21-2.19v-.18zm3.05 10H51.6c-.22 0-.3-.2-.4-.4l-2.93-4.93h-.45c-.53 0-2.17-.06-2.63-.08v5c0 .23-.17.41-.39.41h-2.03a.4.4 0 0 1-.4-.4V9.04c0-.4.24-.55.65-.6 1.05-.17 3.32-.27 4.8-.27 3.13 0 6.01 1.12 6.01 4.59v.18c0 2.15-1.07 3.33-2.74 3.98l3.19 5.44c.04.06.04.12.04.16 0 .14-.08.24-.24.24z"/>
    </g>
</svg>