<svg xmlns="http://www.w3.org/2000/svg" viewBox="0 0 14 12" width="100%" height="100%">
  <path d="M14 1.43a5.51 5.51 0 0 1-1.65.47A3.02 3.02 0 0 0 13.61.23a5.62 5.62 0 0 1-1.82.74A2.8 2.8 0 0 0 9.69 0a2.95 2.95 0 0 0-2.87 3.02c0 .24.03.47.07.7A8.03 8.03 0 0 1 .98.56 3.13 3.13 0 0 0 .6 2.08c0 1.05.5 1.98 1.27 2.52a2.76 2.76 0 0 1-1.3-.38v.04a3 3 0 0 0 2.3 2.97 2.77 2.77 0 0 1-.75.1c-.19 0-.37-.02-.54-.05a2.9 2.9 0 0 0 2.68 2.1A5.58 5.58 0 0 1 0 10.63a7.82 7.82 0 0 0 4.4 1.36c5.29 0 8.17-4.6 8.17-8.6v-.4A5.91 5.91 0 0 0 14 1.43z"/>
</svg>
