<svg version="1" xmlns="http://www.w3.org/2000/svg" width="1194.667" height="1194.667" viewBox="0 0 896.000000 896.000000"><path d="M164 .5c0 .2-2.3 7.5-5.1 16.2s-5.3 16.9-5.5 18.3c-.3 1.4-1.4 5.6-2.5 9.5-1.1 3.8-2.2 8.1-2.5 9.4-.3 1.3-.9 3.1-1.3 4-.5.9-.9 1.9-.9 2.4 0 1.3-1.4 8.4-3.2 16.2-.6 2.7-1.4 5.9-1.6 7-.8 3.3-2.4 11.8-2.8 15-.3 1.6-.7 4.3-1 6-.3 1.6-.8 4.1-1 5.5-.3 1.4-.5 2.5-.6 2.5-.1 0-.3 1.3-.4 3-.3 3.4-1.5 13.4-2.2 18.1-1 6.4-1.9 17.3-2.9 34.9-1 15.4-.4 48.9 1 62.5.2 1.9.7 6.3 1 9.7.4 3.4.8 7 1 8 .2 1 .7 4.7 1.1 8.3.8 6.7 1 7.8 1.4 8.2.1.2.3 1.2.4 2.3.7 4.6 1.7 10.1 2.2 11.8.3 1.1.7 2.9.9 4 .2 1.2.6 3.1.8 4.2.3 1.1 1 4 1.6 6.5.7 2.5 1.4 5.2 1.6 6 .2.8 1.3 4.6 2.3 8.5 1.1 3.8 2.4 8.1 3 9.5.5 1.4 1 2.8 1.1 3.2.3 1.5 3 9.4 4.1 12.3.4 1.1 2.7 6.9 5.1 13 4 10.4 17.4 38.4 18.8 39.5.3.3.7 1.2.9 2 .2.8.8 1.6 1.3 1.8.5.2.9.9.9 1.5 0 .7 2 4.2 4.4 7.9 2.5 3.8 4.2 6.8 3.9 6.8-.4 0 .2 1 1.3 2.2 3 3.6 6.4 8.6 6.4 9.7 0 .5.4 1.1.8 1.3.5.1 2.3 2.4 4 5 1.8 2.5 3.8 5.2 4.5 6 .7.7 2 2.4 2.9 3.8 2.7 4.2 19.5 23.9 26.6 31.2 3.6 3.8 6.9 7.2 7.2 7.6.5.8 17.4 16.1 22.9 20.8 1.9 1.6 3.9 3.3 4.5 3.9.6.5 3.8 3 7.1 5.5s6.6 5.1 7.5 5.7c.8.7 3.6 2.8 6.3 4.6l4.7 3.4-2.1 2.4c-1.1 1.3-4.6 5.3-7.7 8.8-3.1 3.6-7.3 8.3-9.2 10.5-1.9 2.2-4.2 4.7-5 5.5-.8.9-4.4 5.2-8 9.6-3.6 4.4-7.7 9.3-9.2 11-1.5 1.6-7.6 9.1-13.4 16.5-5.8 7.4-11.3 14.4-12.3 15.5-.9 1.1-2.7 3.6-4.1 5.5-1.3 1.9-2.7 3.7-3 4-1.1 1-6 7.9-6 8.4 0 .3-.7 1.4-1.6 2.3-5.1 5.6-30.3 42.7-43.7 64.3-9.4 15-24.7 40.8-24.7 41.5 0 .2-1.5 3-3.4 6.2s-7.7 14.1-12.9 24.3l-9.6 18.5-30.6.1c-16.8.1-30.9.5-31.3.9-.4.4-.8 1.1-.8 1.6-.1.5-.2 1-.3 1.1-.2.2-.4 1.9-.6 3.8-.1 1.9-.8 5.3-1.3 7.5-.6 2.2-1.4 5.6-1.7 7.5-.3 1.9-1.7 8.7-3.1 15-2.3 11.1-2.3 12.5-1 25.5.2 1.6.7 6.1 1.1 10 .4 3.8.8 7.6 1 8.5.2.8.6 4.9 1 9 .7 7.7 1.4 13.3 1.8 13.7.4.3 18.5 4.4 22.7 5.1 4.7.8 16.9.3 30-1.2 1.9-.2 7.4-.7 12.1-1 4.8-.3 10.9-.8 13.5-1.1 2.7-.3 8-.7 11.8-1 7.6-.5 8.3-.8 9-4.5.4-2.1 1.9-8.4 4.1-17 .7-2.9 2.7-11.5 3.1-13.5.2-1.1.9-4.3 1.6-7 1.3-5.5 1.4-7.6.5-15-.4-2.8-.9-8.4-1.3-12.5-.3-4.1-.8-9.1-1-11-.2-1.9-.7-6.9-1-11.2-.5-7.3-.4-7.9 2.9-14 1.9-3.4 5.8-10.8 8.7-16.3 7-13.3 23.2-41.3 28.7-49.6 2.3-3.6 4.3-6.9 4.3-7.2 0-.7 27.5-41.8 33.6-50.2 10-13.6 26.7-36 27.4-36.5.3-.3 3.1-3.9 6.2-8s6.9-8.9 8.5-10.6c1.5-1.6 4-4.6 5.4-6.5 1.5-1.9 3.5-4.4 4.5-5.5 1.1-1.2 8-9.2 15.4-17.8l13.4-15.6 2.6 4.3c1.5 2.3 4.5 7.3 6.8 11.2 6.1 10.3 7.6 12.8 8.5 14 3.8 5.3 7.8 11.3 8.4 12.5.4.8 1.2 2.1 1.9 3 .7.8 4.3 5.5 8 10.5 5.9 7.9 10.2 13.1 17.9 22.3 11.8 14 31.6 33.5 47 46.3 4.9 4 10.1 8.4 11.5 9.6 1.4 1.3 2.8 2.3 3.3 2.3.4 0 1.7.9 2.9 2 3.1 2.8 22.6 16 23.8 16 .6 0 1 .4 1 1 0 .5.6 1 1.3 1 .7 0 1.9.6 2.6 1.2.6.7 1.5 1.3 1.9 1.3.4.1 2.5 1.2 4.7 2.6 5.7 3.7 27.5 14.9 28.9 14.9.7 0 1.8.6 2.5 1.2.6.7 1.5 1.3 1.9 1.3.4 0 4.1 1.5 8.3 3.3 10.7 4.4 13.3 5.5 13.9 5.7.3 0 6.4 2 13.5 4.3 15.9 5.2 17.6 5.7 24.5 7.2 3 .7 6.2 1.5 7 1.8.8.3 2.2.6 3 .8 3.3.6 8.6 1.7 10 2.1 2.8.7 6.5 1.4 8 1.4.8.1 3.5.5 6 .9 2.5.5 7 1.1 10 1.5 3 .3 6.6.8 8 1 18.1 3 64.5 3.5 88.8 1 2.9-.3 7.6-.7 10.5-1 8.1-.8 21.9-2.5 25.2-3.1 3.3-.7 6.9-1.2 11.5-1.8 1.7-.2 3.2-.5 3.4-.7.2-.2-.5-4.6-1.5-9.8-2-10.5-2.9-14.9-3.3-17.1-.1-.8-.6-3.2-1-5.3l-.8-3.8-4.2.7c-2.2.4-5.4.8-7.1 1-1.6.2-4.1.5-5.5.8-8.5 1.7-21 3-39 4.3-11.7.8-51.4.7-59.5-.1-3.3-.4-8.2-.8-11-1.1-2.7-.2-6.3-.6-8-.9-1.6-.2-5.2-.7-8-1.1-4.3-.6-26.3-4.9-30.5-5.9-.8-.2-3.5-.9-6-1.5-5.9-1.5-12.1-3.2-14-3.9-.8-.3-1.8-.6-2.2-.7-.5-.2-.9-.3-1-.5-.2-.1-1-.3-1.8-.5-3.3-.7-17.6-5.8-18.5-6.6-.5-.5-1.5-.9-2.2-.9-2.7 0-28.6-12.4-42.3-20.2-30.6-17.6-64.4-45.3-85.2-69.9-2.1-2.4-4.4-5.1-5.2-5.9-.8-.8-4.6-5.6-8.6-10.5-3.9-5-7.7-9.7-8.4-10.5-.7-.9-1.5-2.4-1.9-3.3-.3-.9-1.1-1.7-1.7-1.7-.5 0-1-.5-1-1.2 0-.6-.7-2-1.7-3-2.3-2.5.4-2.4 3.7.2 1.4 1.1 2.8 2 3.3 2 .4 0 2.4 1 4.5 2.3 5.7 3.6 42.3 22.8 44.2 23.2.3.1 5.4 2.5 11.3 5.3 6 2.9 11 5.2 11.2 5.2.3 0 2.8 1.1 5.7 2.4 7.5 3.4 33.8 13.8 43.3 17.1 7.5 2.5 8.8 3 10.7 3.4.4.1 2.3.8 4.3 1.7 1.9.8 3.5 1.2 3.5.9 0-.3 1-.1 2.1.6 2.2 1.2 13.4 4.6 17.9 5.5 1.4.3 4.8 1.2 7.6 2s6 1.6 7 1.8c1.1.2 5.7 1.3 10.4 2.5 12.9 3.1 27 5.8 34.5 6.7 4 .4 8 1.1 8 1.4 0 .1 2 .3 4.5.5s6.5.6 9 .9c14.5 1.7 21.9 2 44 2.1 21.4 0 40.3-.8 46.6-1.9 1-.2 4.6-.7 7.9-1.2 3.3-.4 6.2-.8 6.5-.9.3 0 2.8-.5 5.5-.9 2.8-.5 5.9-1 7-1.2 2.7-.5 6-1.2 6-1.4 0-.1 1.2-.3 2.6-.5 1.4-.2 4.5-.9 7-1.6 2.4-.7 4.6-1.3 4.9-1.4 5.7-1.3 11.7-2.9 12.5-3.4.6-.3 1.5-.6 2-.7 2.3-.4 17.2-5.7 19.8-7.1 1.6-.8 2.6-2 2.4-2.6-6.2-14.8-9.2-22-10.8-25.4-1-2.4-1.9-4.7-1.9-5.3 0-1.5-1.9-1.2-7.9 1-7.1 2.8-30.8 9.7-35.6 10.4-2 .4-4 .8-4.4 1-.3.3-2.5.7-4.7 1-2.2.4-4.9.8-6.1 1-5.7 1.1-14.2 2.2-24.8 3.3-10.4 1-52.8 1-62.5 0-4.1-.4-9.9-.9-12.8-1.2-2.9-.3-8.1-.9-11.5-1.5-3.4-.5-8-1.2-10.2-1.5-2.2-.4-8.3-1.6-13.5-2.7-5.2-1.1-10.4-2.2-11.6-2.3-1.1-.2-5.4-1.2-9.6-2.3-4.1-1.2-8.8-2.4-10.4-2.7-1.6-.3-3.4-.7-4.1-.9-.7-.1-1.6-.5-1.9-.9-.4-.4-1.8-.7-3.1-.7s-3.7-.7-5.3-1.5c-1.7-.9-3.2-1.5-3.5-1.5-.3 0-.6 0-.7-.1-.2 0-1-.2-1.9-.4-5.5-1-36.8-12.4-55.4-20-1.1-.5-2.2-.9-2.5-1-2.5-.9-25.9-11.4-28.5-12.8-1.1-.6-2.2-1.2-2.5-1.2-.7-.1-24.2-12-30.5-15.5-2.7-1.5-7.4-4-10.2-5.5-2.9-1.6-5.3-3.2-5.3-3.7s.3-.7.8-.4c.7.4 3 .7 20.7 2.2 50.8 4.3 114.8 5.1 169.6 2 2.5-.1 5.1-.6 5.7-1 .7-.4 1.2-.2 1.2.4 0 .6.3.9.8.6.8-.5 10.6-1.5 19.2-2 5-.3 12.4-1.1 20.5-2.1 1.7-.2 5.7-.7 9-1 3.3-.3 7.4-.9 9-1.2 1.7-.3 4.1-.7 5.5-.8 5.1-.5 13.5-1.6 15-2 .8-.2 3.3-.7 5.5-1 2.3-.3 5.2-.8 6.5-1 1.4-.3 6.6-1.2 11.5-2.1 7.9-1.4 19.6-3.7 24.8-5 3.7-.9 6.3-1.4 9.2-1.9 3.5-.6 27-6.7 36.9-9.6 3.8-1.1 7.6-2.2 8.5-2.4.9-.2 8.4-2.6 16.6-5.4 8.3-2.8 15.5-5.3 16-5.5 1.1-.3 3-1 6-2.2 1.1-.4 2.2-.8 2.5-.9 6.6-1.7 6.8-.2-4.7-27.5-3.7-8.7-3.9-8.9-8.5-7.1-10.2 4.1-30.8 11.2-36.8 12.6-.3.1-1.2.4-2 .7-3.5 1.4-15.8 4.8-19 5.3-.8.2-5.1 1.3-9.5 2.5s-9.1 2.4-10.5 2.6c-1.4.3-4.1.9-6 1.4-1.9.5-4.6 1.1-6 1.4-1.4.2-4.5.9-7 1.5-2.5.5-5.7 1.2-7.3 1.5-6.3 1.2-14.4 2.5-17.8 3-2 .3-4.2.8-5 1-.8.3-3.2.8-5.4 1-2.2.3-7.4 1-11.5 1.6-4.1.6-8.8 1.3-10.5 1.5-1.6.1-4.8.5-7 .9-2.2.3-6.5.8-9.5 1.1-3 .3-7.1.7-9 .9-1.9.3-7.1.7-11.5 1-4.4.4-10.2.9-13 1.1-35.8 3.7-121.4 3.8-166 .1-13.2-1.1-22-1.8-24-1.8-3.5 0 2.5-2.1 39.5-14.3 35.3-11.6 43.1-14.3 56.5-19.3 3.9-1.4 7.5-2.7 8-2.8.6-.1 2.4-.8 4-1.5 1.7-.6 3.7-1.3 4.5-1.5.8-.2 4.8-1.7 8.8-3.3 3.9-1.6 7.2-2.8 7.2-2.5 0 .2 1.2-.4 2.7-1.3 1.5-1 2.7-1.7 2.8-1.5 0 .4 1.3-.1 15.3-5.4 6.2-2.4 11.4-4.4 11.7-4.4.2 0 1.6-.5 3.2-1.2 1.5-.6 3-1.2 3.3-1.3.3-.1 2.2-.9 4.4-1.8 2.1-.9 4-1.7 4.3-1.7.2 0 2.3-.8 4.6-1.9 2.3-1 7.1-3 10.7-4.4 3.6-1.4 9.1-3.7 12.3-5.1 3.1-1.4 5.9-2.6 6.2-2.6.3 0 2-.6 3.8-1.3 7.6-3.3 32.6-14.1 37.5-16.3 2.9-1.3 8-3.5 11.3-5 3.4-1.4 10.9-4.7 16.6-7.5 5.8-2.7 10.7-4.9 10.8-4.9.2 0 6.9-3.2 14.9-7 8.1-3.9 15.1-7 15.6-7 .6 0 1-.5 1-1 0-.6.5-1 1.1-1 1.5 0 53.1-25.8 54.6-27.4.3-.2-.2-1.5-1-2.8-.9-1.2-3.2-5.2-5.1-8.8-2-3.6-5.3-9.5-7.3-13.3-2.1-3.7-4-6.7-4.3-6.7-.4 0-14 6.7-30.2 14.9-16.3 8.2-29.9 14.7-30.2 14.3-.3-.3-.6 0-.6.6 0 .7-.4 1.2-1 1.2-.5 0-7.1 2.9-14.6 6.5s-13.8 6.5-14 6.5c-.2 0-4.1 1.8-8.7 4.1-4.5 2.2-8.4 4.1-8.7 4.1-.3 0-2.3.9-4.5 2.1-2.2 1.1-4.2 2-4.5 1.9-.6-.1-7 2.7-9 3.9-.8.5-2.2 1.2-3 1.5-5 2.1-33.3 14-37 15.7-2.4 1-4.9 2-5.5 2.2-.5.1-2.1.7-3.5 1.2-1.4.6-9.5 3.9-18 7.3s-16.8 6.8-18.5 7.5c-3.5 1.6-37.3 14.4-39.5 15-.8.3-7.1 2.5-14 5.1-16.7 6.2-40.1 14.4-42.2 14.9-.9.2-2.5.8-3.6 1.4-1 .5-3 1.2-4.3 1.5-1.3.3-5.1 1.4-8.4 2.6-3.3 1.2-6.7 2.4-7.5 2.6-.8.2-4.2 1.3-7.5 2.5-3.3 1.1-6.4 2.2-7 2.3-.5.2-1.7.6-2.5.9-.8.3-4 1.3-7 2.2-3 .9-6.2 1.9-7 2.2-.8.3-1.9.7-2.5.8-.5.1-1.3.3-1.7.5-.5.1-1.1.3-1.5.4-.5.2-3.5 1.1-6.8 2.1s-6.2 1.8-6.5 1.7c-.3 0-1.3.4-2.4 1-2.8 1.5-1.2-.6 4.2-5.5 2.5-2.3 5.8-5.3 7.3-6.7 13.8-12.8 31.4-28.5 47.8-42.5 1.3-1.1 2.9-2.5 3.5-3 .6-.6 3.3-2.8 6.1-5 5.5-4.5 9.2-7.5 10.9-9 .6-.6 5.6-4.6 11.1-9s10.2-8.3 10.5-8.6c.3-.3 8.6-6.7 18.5-14.3 9.9-7.5 19-14.4 20.1-15.4 1.2-.9 3.2-2.5 4.5-3.4 4.2-3 13.4-9.7 14.4-10.5 1.3-1.1 27.3-19.4 30.5-21.6 1.4-.9 4.4-3 6.8-4.7 2.3-1.6 4.7-3 5.2-3 .4 0 1-.4 1.2-.8.4-1.1 21.5-15.2 22.7-15.2.5 0 1.1-.4 1.3-.9.2-.5 8.2-5.9 17.8-11.9 9.6-6.1 18-11.5 18.5-11.9.6-.4 2.6-1.7 4.6-2.8 2-1.1 9.2-5.3 16-9.4 6.8-4 16.1-9.5 20.6-12.2 4.5-2.7 8.7-4.9 9.3-4.9.5 0 1-.5 1-1 0-.6.4-1 .9-1s4.4-2 8.7-4.4c4.4-2.4 12.1-6.6 17.2-9.3 5.2-2.8 9.4-5.2 9.5-5.4.5-1.1-16-31.9-17-31.9-1.6 0-11.7 5.2-12.1 6.2-.2.5-.8.8-1.3.8-.8 0-19.1 9.9-31.4 17-2.2 1.3-6 3.5-8.5 4.9-2.5 1.4-4.6 2.9-4.8 3.3-.2.4-.8.8-1.4.8-2.5 0-89.6 54.9-96.3 60.7-.5.5-5.9 4.2-12 8.3-6 4.1-11.6 8-12.5 8.7-.8.7-4.6 3.5-8.5 6.2-3.8 2.8-7.4 5.4-8 5.8-.5.5-5.9 4.4-12 8.8-6 4.4-12.1 9-13.5 10.2-1.4 1.3-2.8 2.3-3.2 2.3-.3 0-1.3.6-2 1.3-.7.7-6.2 5.1-12.3 9.7-11.7 9-27 21.1-29.5 23.3-.8.7-3.5 2.9-5.9 4.8-2.5 1.9-5.2 4.1-6.1 4.9-.8.8-3.7 3.3-6.4 5.5s-5.8 4.9-7.1 6c-1.2 1.1-5.2 4.5-9 7.5-3.7 3-8.2 6.8-9.9 8.5-3.2 3-16.7 15-19 17-.7.5-2.7 2.3-4.5 4l-3.4 3 3-5.5c1.6-3 4.2-7.4 5.6-9.7 1.5-2.4 2.7-4.7 2.7-5.3 0-.5.5-1 1-1 .6 0 1-.5 1-1 0-.6 4.1-7.6 9-15.7 5-8 9-14.9 9-15.3 0-.5.4-1 .8-1.2.4-.2 2.6-3.2 4.7-6.8 2.1-3.6 5.4-8.6 7.2-11.2 1.8-2.6 3.3-5.2 3.3-5.7s.3-1.1.8-1.3c.4-.2 5.5-7.5 11.4-16.3 5.8-8.8 14.5-21.4 19.2-28 4.7-6.6 9.1-12.8 9.8-13.8.7-1 2.9-4 4.8-6.6 1.9-2.6 4.4-6 5.5-7.5 1.1-1.6 2.8-3.8 3.7-5 1-1.1 5-6.4 9-11.6 3.9-5.2 7.5-9.7 8-9.8.4-.2.8-.8.8-1.3 0-1 14.9-20 26.6-34 2.2-2.5 5.5-6.5 7.4-8.9 1.9-2.3 4.3-5.2 5.3-6.4 1-1.1 3.5-4.1 5.5-6.5 9-10.7 22-25.5 26.2-30.1.8-.9 3-3.4 4.9-5.5 4.5-5.3 21.5-23.8 31.8-34.5 13.3-13.9 15.3-16.1 15.3-16.9 0-.6-4.8-5.1-21.9-20.8l-4.6-4.3-11.9 12.3c-6.5 6.7-14.1 14.7-16.8 17.7-2.8 3-8.7 9.5-13.2 14.4-9.7 10.6-7.9 8.6-20.1 22.6-5.5 6.3-11 12.5-12.3 13.9-1.3 1.4-4.9 5.6-8 9.5-3.1 3.8-6.8 8.1-8.1 9.5-1.3 1.4-4.4 5.3-6.9 8.6-2.6 3.3-5.4 6.9-6.4 7.9-1 1.1-1.8 2.4-1.8 2.8 0 .5-.4.7-.9.3-.5-.3-1.2.3-1.5 1.2-.3 1-1.6 2.9-2.9 4.3-1.2 1.4-5.7 7-9.9 12.5-4.3 5.5-8.4 10.7-9.1 11.5-.7.8-2.7 3.3-4.3 5.5-1.6 2.2-3.1 4.2-3.4 4.5-3.7 3.3-59.6 82.5-66.5 94.2-3.9 6.6-11 17.4-11.7 17.6-.4.2-.8.8-.8 1.3s-1.9 3.9-4.2 7.7c-5.2 8.3-4.3 6.8-17.6 29.2-6 10.2-14 24-17.7 30.8-3.7 6.7-7.2 12.5-7.8 12.9-.5.3-.7.1-.4-.4.4-.6.9-4.6 1.2-9 .5-9.7 1.6-22.2 2.1-24.8.2-1 .6-4.9 1-8.5.3-3.6.8-7.4 1-8.5.2-1.1.7-4 1-6.5.6-5 1.1-8.2 1.8-12 .5-2.2 1.2-6.4 2.1-12.5.2-1.1 1.5-7.9 3-15 1.5-7.2 2.8-13.5 2.9-14 .1-.6.5-1.9.9-3 .3-1.1.8-3.1 1.1-4.5.5-2.4 6.4-25.5 7-27.5.2-.6.4-1.3.5-1.7.1-.4.8-2.6 1.6-4.8.8-2.2 1.5-4.4 1.5-4.8.2-2 2.5-8.9 3.3-10 .5-.7.7-1.5.4-1.9-.3-.3 0-1.8.9-3.4.8-1.6 1.1-2.9.7-2.9-.5 0-.3-.4.2-.8.9-.6 6.3-16.1 6.6-18.7 0-.6.8-1.8 1.6-2.8.9-.9 1.3-1.7 1-1.7-.3 0 .1-1.7 1-3.8 3.2-7.7 3.6-8.7 3.8-9.8.3-1.2 5.2-12.7 9.6-22.2 1.6-3.5 2.9-6.6 2.9-6.9 0-1.1 21.5-43.3 27.4-53.8 12.1-21.5 35.7-58.6 37.7-59.3.5-.2.9-.9.9-1.5 0-.7.9-2.3 2-3.7 1.1-1.4 5.7-7.5 10.1-13.5 4.5-6.1 9.2-12.2 10.5-13.6l2.4-2.5-2.2-2c-1.3-1.1-5-4-8.3-6.5-3.3-2.4-6.4-4.8-7-5.2-4.2-3.3-11.8-8.7-12.4-8.7-.3 0-3.1 3.3-6.1 7.2-3 4-6 8-6.7 8.8-1.3 1.7-8.1 10.8-10.1 13.7-7.2 10.2-21.4 31.2-22.2 32.8-.3.6-2.1 3.5-4 6.5-4.1 6.5-4.4 6.9-10.9 18-2.7 4.7-5.5 9.1-6.1 9.7-.6.7-.9 1.3-.6 1.3.5 0-7.9 15-9.4 16.7-.6.7-1 1.5-1 1.8 0 .3-3.4 7.4-7.6 15.7-4.2 8.4-9.3 19.1-11.4 23.8-7.5 17-8.2 18.5-9.2 20.4-.5 1-1.1 2.8-1.4 3.9-.2 1.1-.7 2.3-1.1 2.6-.5.3-.9 1.1-1 1.8-.2.7-1.8 5.2-3.7 10-4.9 12.4-14.6 40.1-14.6 41.6 0 .7-.5 1.8-1.2 2.5s-.9 1.2-.6 1.2c.4 0-.2 2.5-1.2 5.6-1.6 4.6-7.1 24.2-8.5 30.3-.3.9-1.3 5.2-2.5 9.6-1.1 4.4-2.2 9.3-2.5 11-.3 1.6-1 4.6-1.5 6.5-.5 1.9-1.1 4.8-1.4 6.5-.3 1.6-.7 4.1-1 5.5-.3 1.4-.7 3.6-1 5-.2 1.4-.7 3.6-1 5-.4 1.4-.8 4.1-1 6-.3 1.9-.5 3.5-.6 3.5-.1 0-.3.9-.4 2-.9 6.7-2.6 18.3-3.2 21.5-.6 3.8-1.5 11.9-2 18-.2 3-.6 7.7-.9 10.5-.8 7.4-1.3 13.5-1.4 18-.2 4-.2 4-1.6 1.5-.8-1.4-1.4-3.3-1.5-4.3 0-.9-.4-2.5-1-3.5-1.4-2.4-9.9-28.9-11.5-35.7-.9-4.2-1.8-7.4-2.6-9.5-.5-1.4-1.1-4.1-1.3-6-.2-1.9-.7-4.2-1-5-1.2-3.1-5.3-25.8-6.7-36.5-.5-4.4-1.2-9.8-1.5-12-1.6-12.7-2.4-29.3-2.4-50.5.1-19.5.3-24.1 1.4-25.8.3-.6.2-1.3-.4-1.7-.6-.4-.8-1-.5-1.4.2-.5.7-3.3 1-6.2.5-5.3 1.1-10.1 2-16.9.3-1.9.7-5.5 1-7.9.3-2.3.7-4.6.9-5 .2-.3.7-2.9 1-5.6.8-6.3 7.3-34.5 9.3-40.4.8-2.4 1.6-5.1 1.8-6 1.2-6.2 13.8-40.1 20-53.6 5.4-12 5.9-13 6.8-13.6.5-.3.8-.9.8-1.3-.2-.9 11.6-24.3 12.9-25.6.8-.8 2.9-4.3 3.7-6 .3-.8 2.1-3.9 4-6.8 1.8-2.9 3.3-5.6 3.3-6.1s.3-1.1.8-1.3c1.2-.5 6.2-8.6 6.2-10 0-.7-3-3.1-6.6-5.3-3.7-2.2-8.5-5.2-10.8-6.7-2.2-1.5-4.8-3.1-5.6-3.5-.8-.3-2.9-1.7-4.6-2.9l-3-2.3-3 4.9c-1.6 2.7-3.2 5-3.6 5-.5 0-.8.4-.8.8 0 .5-3.1 6.1-7 12.4-3.8 6.4-7.9 13.3-9.1 15.5-2.7 4.8-17.9 35-17.9 35.6 0 .3-1.2 3.1-2.7 6.3-1.5 3.3-2.8 6.1-2.8 6.4-.1.3-.9 2.3-1.9 4.5-4.2 9.4-10.4 27.4-15.5 44.5-1.8 5.8-3.6 11.8-4.1 13.5-.5 1.6-1.2 4.6-1.5 6.5-.3 1.9-1.1 5.3-1.7 7.5-.6 2.2-1.3 4.7-1.4 5.5-.3 1.6-1.6 7.9-1.9 9.5-.2.5-.5 2.6-.9 4.5-.3 1.9-.8 4.4-1 5.6-.2 1.2-.7 4.5-1.1 7.5-.4 3-.8 5.6-1 5.9-.2.3-.6 3.6-1 7.5-.3 3.8-.8 8.1-1 9.5-2.5 16.4-2.5 79.6 0 92.8.3 2.1 1.3 9.4 3 22.7.3 2.7.8 6.1 1.2 7.5.3 1.4.7 3.4.9 4.5 1.3 8.3 3.1 17 6.9 32.7.8 3.5 1.7 7.2 2 8.3 1.4 6.3 11.9 40 14.4 46 .5 1.1 1.3 3.1 1.8 4.5.6 1.4 1.6 3.8 2.2 5.4.7 1.6 1 3 .8 3.3-.6.5-13.1-12.6-20.9-21.8-2-2.4-4.4-5.4-5.5-6.6-1-1.1-2.5-3.1-3.3-4.3-.8-1.2-2.8-3.9-4.4-5.9-4.2-5.4-15.7-22.6-20.3-30.6-5.6-9.7-15.3-28.5-14.6-28.5.3 0 .1-.6-.5-1.3-1.6-1.9-9.2-20.7-8.4-20.7.4 0 .2-.4-.4-.8-.9-.6-8.8-23.3-8.9-25.7 0-.6-.6-2.6-1.2-4.5-.7-1.9-1.5-4.6-1.7-6-.3-1.4-1.2-5.2-2-8.5s-1.7-7.7-2-9.9c-.4-2.1-.8-4.1-1-4.5-.2-.3-.7-3-1-6-.4-2.9-.8-5.6-1-6-.2-.3-.7-3.5-1-7.1-.4-3.6-.9-7.9-1.2-9.5-1.6-10.1-2.4-63.2-1.1-78.4 1.1-12.9 1.9-20.7 2.7-25.6.4-2.8.6-5.3.3-5.8-.2-.4-.1-.7.4-.7.4 0 .8-1.2.9-2.8.1-3.1 1.2-12 1.9-14.2.2-.8.6-3.1.9-5 .8-5.2 1.6-9.1 2.3-12.5 1-4.2 1-4.5 1.3-4.8.1-.1.3-1.1.4-2.2.3-2.1 1.7-9.2 2.2-11 .4-1.3 3.5-13.6 3.9-15.5.2-.8.4-1.7.5-2 .1-.3.2-.9.1-1.3s.3-1.6.8-2.6c.6-1 1.2-2.9 1.5-4.2.2-1.3 1.2-4.7 2.1-7.4.9-2.8 1.8-6 2.1-7.2.2-1.2 2-6.9 3.8-12.5 1.9-5.7 3.2-10.6 3-10.9-.4-.7-17.9-6.7-21.3-7.4-.9-.2-3.4-1-5.4-1.9-2-.8-3.7-1.3-3.7-1.1 0 .3-1.1 0-2.5-.5S164 .2 164 .5z"/></svg>